<svg xmlns="http://www.w3.org/2000/svg" viewBox="0 0 1653 826"><defs><style>.cls-1{fill:#fff;}</style></defs><title>compressible_blocks</title><g id="Layer_2" data-name="Layer 2"><rect class="cls-1" width="1653" height="826"/></g><g id="Layer_1" data-name="Layer 1"><rect class="cls-1" x="103.5" y="106.5" width="151" height="151"/><path d="M252,109V255H106V109H252m5-5H101V260H257V104Z"/><rect x="103.5" y="262.5" width="151" height="151"/><path d="M252,265V411H106V265H252m5-5H101V416H257V260Z"/><rect x="103.5" y="418.5" width="151" height="151"/><path d="M252,421V567H106V421H252m5-5H101V572H257V416Z"/><rect x="103.5" y="574.5" width="151" height="151"/><path d="M252,577V723H106V577H252m5-5H101V728H257V572Z"/><rect class="cls-1" x="259.5" y="106.5" width="151" height="151"/><path d="M408,109V255H262V109H408m5-5H257V260H413V104Z"/><rect x="259.5" y="262.5" width="151" height="151"/><path d="M408,265V411H262V265H408m5-5H257V416H413V260Z"/><rect x="259.5" y="418.5" width="151" height="151"/><path d="M408,421V567H262V421H408m5-5H257V572H413V416Z"/><rect x="259.5" y="574.5" width="151" height="151"/><path d="M408,577V723H262V577H408m5-5H257V728H413V572Z"/><rect class="cls-1" x="415.5" y="106.5" width="151" height="151"/><path d="M564,109V255H418V109H564m5-5H413V260H569V104Z"/><rect x="415.5" y="262.5" width="151" height="151"/><path d="M564,265V411H418V265H564m5-5H413V416H569V260Z"/><rect x="415.5" y="418.5" width="151" height="151"/><path d="M564,421V567H418V421H564m5-5H413V572H569V416Z"/><rect x="415.5" y="574.5" width="151" height="151"/><path d="M564,577V723H418V577H564m5-5H413V728H569V572Z"/><rect class="cls-1" x="571.5" y="106.5" width="151" height="151"/><path d="M720,109V255H574V109H720m5-5H569V260H725V104Z"/><rect x="571.5" y="262.5" width="151" height="151"/><path d="M720,265V411H574V265H720m5-5H569V416H725V260Z"/><rect x="571.5" y="418.5" width="151" height="151"/><path d="M720,421V567H574V421H720m5-5H569V572H725V416Z"/><rect x="571.5" y="574.5" width="151" height="151"/><path d="M720,577V723H574V577H720m5-5H569V728H725V572Z"/><rect x="923.5" y="106.5" width="151" height="151"/><path d="M1072,109V255H926V109h146m5-5H921V260h156V104Z"/><rect x="923.5" y="262.5" width="151" height="151"/><path d="M1072,265V411H926V265h146m5-5H921V416h156V260Z"/><rect x="923.5" y="418.5" width="151" height="151"/><path d="M1072,421V567H926V421h146m5-5H921V572h156V416Z"/><rect class="cls-1" x="923.5" y="574.5" width="151" height="151"/><path d="M1072,577V723H926V577h146m5-5H921V728h156V572Z"/><rect class="cls-1" x="1079.5" y="106.5" width="151" height="151"/><path d="M1228,109V255H1082V109h146m5-5H1077V260h156V104Z"/><rect x="1079.5" y="262.5" width="151" height="151"/><path d="M1228,265V411H1082V265h146m5-5H1077V416h156V260Z"/><rect x="1079.5" y="418.5" width="151" height="151"/><path d="M1228,421V567H1082V421h146m5-5H1077V572h156V416Z"/><rect x="1079.5" y="574.5" width="151" height="151"/><path d="M1228,577V723H1082V577h146m5-5H1077V728h156V572Z"/><rect x="1235.5" y="106.5" width="151" height="151"/><path d="M1384,109V255H1238V109h146m5-5H1233V260h156V104Z"/><rect x="1235.5" y="262.5" width="151" height="151"/><path d="M1384,265V411H1238V265h146m5-5H1233V416h156V260Z"/><rect class="cls-1" x="1235.5" y="418.5" width="151" height="151"/><path d="M1384,421V567H1238V421h146m5-5H1233V572h156V416Z"/><rect x="1235.5" y="574.5" width="151" height="151"/><path d="M1384,577V723H1238V577h146m5-5H1233V728h156V572Z"/><rect x="1391.5" y="106.5" width="151" height="151"/><path d="M1540,109V255H1394V109h146m5-5H1389V260h156V104Z"/><rect class="cls-1" x="1391.5" y="262.5" width="151" height="151"/><path d="M1540,265V411H1394V265h146m5-5H1389V416h156V260Z"/><rect x="1391.5" y="418.5" width="151" height="151"/><path d="M1540,421V567H1394V421h146m5-5H1389V572h156V416Z"/><rect x="1391.5" y="574.5" width="151" height="151"/><path d="M1540,577V723H1394V577h146m5-5H1389V728h156V572Z"/><path d="M172,57.17H155V73h19v4.75H149.29V33.89H173v4.75H155V52.49h17Z"/><path d="M198.5,77.71l-.46-4h-.19a11.73,11.73,0,0,1-9.62,4.68c-6.37,0-9.62-4.48-9.62-9,0-7.61,6.76-11.77,18.91-11.7V57c0-2.6-.71-7.29-7.15-7.29a15.7,15.7,0,0,0-8.19,2.35l-1.3-3.77a19.44,19.44,0,0,1,10.34-2.8c9.62,0,12,6.57,12,12.87V70.17a44.33,44.33,0,0,0,.52,7.54Zm-.85-16.06c-6.24-.13-13.32,1-13.32,7.09a5.06,5.06,0,0,0,5.39,5.46,7.83,7.83,0,0,0,7.61-5.27,6.06,6.06,0,0,0,.32-1.82Z"/><path d="M211.63,71.86a15,15,0,0,0,7.54,2.27c4.16,0,6.11-2.08,6.11-4.68s-1.63-4.22-5.85-5.78c-5.66-2-8.32-5.14-8.32-8.91,0-5.07,4.09-9.23,10.85-9.23a15.72,15.72,0,0,1,7.74,1.95l-1.43,4.16a12.26,12.26,0,0,0-6.44-1.82c-3.38,0-5.26,2-5.26,4.29,0,2.6,1.88,3.77,6,5.33,5.46,2.08,8.25,4.81,8.25,9.49,0,5.53-4.29,9.43-11.76,9.43a17.93,17.93,0,0,1-8.84-2.15Z"/><path d="M244.52,37.4a3.55,3.55,0,0,1-7.09,0A3.49,3.49,0,0,1,241,33.83,3.4,3.4,0,0,1,244.52,37.4Zm-6.37,40.31V46.25h5.72V77.71Z"/><path d="M253.36,31.55h5.72V77.71h-5.72Z"/><path d="M270.78,46.25l6.89,18.59c.71,2.08,1.49,4.55,2,6.43h.13c.59-1.88,1.24-4.29,2-6.56l6.24-18.46h6l-8.58,22.42c-4.09,10.79-6.89,16.32-10.79,19.7a15.45,15.45,0,0,1-7,3.7l-1.43-4.81a15,15,0,0,0,5-2.79,17.43,17.43,0,0,0,4.81-6.37,4.09,4.09,0,0,0,.45-1.37,5,5,0,0,0-.39-1.49l-11.63-29Z"/><path d="M343.9,76.28c-2.08,1-6.24,2.08-11.57,2.08-12.35,0-21.65-7.8-21.65-22.17,0-13.72,9.3-23,22.89-23,5.46,0,8.9,1.17,10.4,2l-1.37,4.61a20.58,20.58,0,0,0-8.84-1.82c-10.27,0-17.09,6.57-17.09,18.08,0,10.72,6.17,17.61,16.83,17.61a22.52,22.52,0,0,0,9.23-1.82Z"/><path d="M378.55,61.72c0,11.63-8.06,16.7-15.67,16.7-8.52,0-15.08-6.24-15.08-16.18,0-10.53,6.89-16.71,15.6-16.71C372.44,45.53,378.55,52.1,378.55,61.72Zm-25,.32c0,6.89,4,12.09,9.56,12.09S372.7,69,372.7,61.91c0-5.33-2.67-12.09-9.43-12.09S353.58,56.06,353.58,62Z"/><path d="M385.76,54.76c0-3.25-.07-5.92-.26-8.51h5l.27,5.06H391a10.85,10.85,0,0,1,9.88-5.78,9.31,9.31,0,0,1,8.91,6.3h.13a12.88,12.88,0,0,1,3.51-4.09,10.71,10.71,0,0,1,6.95-2.21c4.16,0,10.34,2.73,10.34,13.65V77.71h-5.59V59.9c0-6-2.21-9.69-6.83-9.69a7.42,7.42,0,0,0-6.76,5.2,9.43,9.43,0,0,0-.45,2.86V77.71h-5.59V58.86c0-5-2.21-8.65-6.57-8.65-3.57,0-6.18,2.86-7.08,5.72a7.8,7.8,0,0,0-.46,2.8v19h-5.59Z"/><path d="M440,56.52c0-4-.13-7.29-.26-10.27h5.13l.26,5.39h.13a12.38,12.38,0,0,1,11.19-6.11c7.6,0,13.32,6.43,13.32,16,0,11.31-6.89,16.9-14.3,16.9-4.16,0-7.8-1.82-9.69-4.94h-.12v17.1H440Zm5.66,8.38a12.81,12.81,0,0,0,.25,2.34,8.83,8.83,0,0,0,8.59,6.7c6,0,9.55-4.94,9.55-12.16,0-6.3-3.31-11.7-9.36-11.7A9.12,9.12,0,0,0,446,57.17a9,9,0,0,0-.39,2.34Z"/><path d="M477,56.06c0-3.71-.06-6.89-.26-9.81h5l.19,6.17h.26c1.43-4.23,4.88-6.89,8.71-6.89a6.24,6.24,0,0,1,1.63.19v5.4a8.6,8.6,0,0,0-1.95-.2c-4,0-6.89,3.06-7.67,7.35a16.11,16.11,0,0,0-.26,2.67V77.71H477Z"/><path d="M500.74,63c.13,7.73,5.07,10.92,10.79,10.92a20.64,20.64,0,0,0,8.71-1.63l1,4.1a25.51,25.51,0,0,1-10.47,2c-9.68,0-15.47-6.37-15.47-15.86s5.59-17,14.76-17c10.27,0,13,9,13,14.82a20.6,20.6,0,0,1-.2,2.67Zm16.77-4.1c.07-3.64-1.49-9.29-7.93-9.29-5.78,0-8.32,5.33-8.77,9.29Z"/><path d="M529.34,71.86a15,15,0,0,0,7.54,2.27c4.16,0,6.11-2.08,6.11-4.68s-1.62-4.22-5.85-5.78c-5.65-2-8.32-5.14-8.32-8.91,0-5.07,4.1-9.23,10.86-9.23a15.68,15.68,0,0,1,7.73,1.95L546,51.64a12.22,12.22,0,0,0-6.43-1.82c-3.38,0-5.27,2-5.27,4.29,0,2.6,1.89,3.77,6,5.33,5.46,2.08,8.26,4.81,8.26,9.49,0,5.53-4.29,9.43-11.77,9.43a18,18,0,0,1-8.84-2.15Z"/><path d="M555.08,71.86a15,15,0,0,0,7.54,2.27c4.16,0,6.11-2.08,6.11-4.68s-1.62-4.22-5.85-5.78c-5.65-2-8.32-5.14-8.32-8.91,0-5.07,4.1-9.23,10.86-9.23a15.68,15.68,0,0,1,7.73,1.95l-1.43,4.16a12.22,12.22,0,0,0-6.43-1.82c-3.38,0-5.27,2-5.27,4.29,0,2.6,1.89,3.77,6,5.33,5.46,2.08,8.26,4.81,8.26,9.49,0,5.53-4.29,9.43-11.77,9.43a18,18,0,0,1-8.84-2.15Z"/><path d="M588,37.4a3.54,3.54,0,0,1-7.08,0,3.48,3.48,0,0,1,3.57-3.57A3.39,3.39,0,0,1,588,37.4ZM581.6,77.71V46.25h5.72V77.71Z"/><path d="M596.55,77.71c.13-2.15.26-5.33.26-8.13v-38h5.66V51.31h.13c2-3.51,5.65-5.78,10.72-5.78,7.8,0,13.33,6.5,13.26,16.06,0,11.24-7.08,16.83-14.1,16.83-4.55,0-8.19-1.75-10.53-5.91h-.2l-.26,5.2Zm5.92-12.61a10.76,10.76,0,0,0,.26,2.08,8.82,8.82,0,0,0,8.58,6.69c6,0,9.55-4.87,9.55-12.09,0-6.3-3.25-11.7-9.36-11.7a9.12,9.12,0,0,0-8.71,7,11.3,11.3,0,0,0-.32,2.34Z"/><path d="M633.8,31.55h5.72V77.71H633.8Z"/><path d="M652.32,63c.13,7.73,5.07,10.92,10.79,10.92a20.64,20.64,0,0,0,8.71-1.63l1,4.1a25.51,25.51,0,0,1-10.47,2c-9.68,0-15.47-6.37-15.47-15.86s5.59-17,14.76-17c10.27,0,13,9,13,14.82a20.6,20.6,0,0,1-.2,2.67Zm16.77-4.1c.07-3.64-1.49-9.29-7.93-9.29-5.78,0-8.32,5.33-8.77,9.29Z"/><path d="M915.34,77.49V33.68h6.18l14,22.16a124,124,0,0,1,7.86,14.24l.13-.07c-.51-5.85-.64-11.18-.64-18V33.68h5.33V77.49h-5.73L928.6,55.26a140,140,0,0,1-8.19-14.63l-.19.07c.32,5.52.45,10.79.45,18.07V77.49Z"/><path d="M986.39,61.5c0,11.63-8.06,16.7-15.67,16.7-8.51,0-15.08-6.24-15.08-16.18,0-10.53,6.89-16.71,15.6-16.71C980.28,45.31,986.39,51.88,986.39,61.5Zm-25,.32c0,6.89,4,12.09,9.55,12.09s9.56-5.13,9.56-12.22c0-5.33-2.67-12.09-9.43-12.09S961.43,55.84,961.43,61.82Z"/><path d="M1000.49,37v9h8.19v4.35h-8.19v17c0,3.9,1.11,6.11,4.29,6.11a13,13,0,0,0,3.32-.39l.26,4.29a14.13,14.13,0,0,1-5.07.78,7.94,7.94,0,0,1-6.18-2.41c-1.62-1.69-2.21-4.48-2.21-8.19V50.38H990V46h4.87V38.49Z"/><path d="M1051.78,57h-17V72.74h19v4.75h-24.64V33.68h23.66v4.74h-18V52.27h17Z"/><path d="M1078.3,77.49l-.46-4h-.19A11.73,11.73,0,0,1,1068,78.2c-6.37,0-9.62-4.48-9.62-9,0-7.61,6.76-11.77,18.91-11.7v-.65c0-2.6-.71-7.28-7.15-7.28a15.69,15.69,0,0,0-8.19,2.34l-1.3-3.77a19.53,19.53,0,0,1,10.34-2.8c9.62,0,12,6.57,12,12.87V70a44.33,44.33,0,0,0,.52,7.54Zm-.85-16.06c-6.24-.13-13.32,1-13.32,7.09a5.06,5.06,0,0,0,5.39,5.46,7.83,7.83,0,0,0,7.61-5.27,6.06,6.06,0,0,0,.32-1.82Z"/><path d="M1091.43,71.64a15,15,0,0,0,7.54,2.27c4.16,0,6.11-2.08,6.11-4.68s-1.63-4.22-5.85-5.78c-5.66-2-8.32-5.14-8.32-8.91,0-5.07,4.09-9.23,10.85-9.23a15.72,15.72,0,0,1,7.74,1.95l-1.43,4.16a12.26,12.26,0,0,0-6.44-1.82c-3.38,0-5.26,1.95-5.26,4.29,0,2.6,1.88,3.77,6,5.33,5.46,2.08,8.25,4.81,8.25,9.49,0,5.53-4.29,9.43-11.76,9.43A17.93,17.93,0,0,1,1090,76Z"/><path d="M1124.32,37.19a3.55,3.55,0,0,1-7.09,0,3.49,3.49,0,0,1,3.58-3.58A3.4,3.4,0,0,1,1124.32,37.19ZM1118,77.49V46h5.72V77.49Z"/><path d="M1133.16,31.34h5.72V77.49h-5.72Z"/><path d="M1150.57,46l6.89,18.59c.72,2.08,1.5,4.55,2,6.43h.13c.59-1.88,1.23-4.29,2-6.56L1167.87,46h6l-8.58,22.42c-4.09,10.79-6.89,16.32-10.79,19.7a15.5,15.5,0,0,1-7,3.7L1146.09,87a15,15,0,0,0,5-2.79,17.43,17.43,0,0,0,4.81-6.37,3.93,3.93,0,0,0,.46-1.37A5,5,0,0,0,1156,75l-11.64-29Z"/><path d="M1223.7,76.06c-2.08,1-6.24,2.08-11.57,2.08-12.35,0-21.65-7.8-21.65-22.17,0-13.71,9.3-23,22.88-23,5.46,0,8.91,1.17,10.4,1.95l-1.36,4.62a20.61,20.61,0,0,0-8.84-1.82c-10.27,0-17.1,6.56-17.1,18.07,0,10.72,6.18,17.61,16.84,17.61a22.59,22.59,0,0,0,9.23-1.82Z"/><path d="M1258.34,61.5c0,11.63-8.06,16.7-15.66,16.7-8.52,0-15.08-6.24-15.08-16.18,0-10.53,6.89-16.71,15.6-16.71C1252.23,45.31,1258.34,51.88,1258.34,61.5Zm-25,.32c0,6.89,4,12.09,9.56,12.09s9.55-5.13,9.55-12.22c0-5.33-2.66-12.09-9.42-12.09S1233.38,55.84,1233.38,61.82Z"/><path d="M1265.56,54.54c0-3.25-.07-5.91-.26-8.51h5l.26,5.07h.2a10.84,10.84,0,0,1,9.88-5.79,9.29,9.29,0,0,1,8.9,6.31h.13a13,13,0,0,1,3.51-4.1,10.76,10.76,0,0,1,7-2.21c4.16,0,10.34,2.73,10.34,13.65V77.49h-5.6V59.68c0-6-2.21-9.69-6.82-9.69a7.41,7.41,0,0,0-6.76,5.2,9.41,9.41,0,0,0-.46,2.86V77.49h-5.59V58.64c0-5-2.21-8.65-6.56-8.65-3.58,0-6.18,2.86-7.09,5.72a8,8,0,0,0-.45,2.8v19h-5.59Z"/><path d="M1319.77,56.3c0-4-.13-7.28-.26-10.27h5.13l.26,5.39h.13a12.38,12.38,0,0,1,11.18-6.11c7.61,0,13.33,6.44,13.33,16,0,11.31-6.89,16.9-14.3,16.9-4.16,0-7.8-1.82-9.69-4.94h-.13v17.1h-5.65Zm5.65,8.38a12.78,12.78,0,0,0,.26,2.34,8.83,8.83,0,0,0,8.58,6.7c6,0,9.56-4.94,9.56-12.16,0-6.3-3.32-11.7-9.36-11.7a9.14,9.14,0,0,0-8.65,7.09,9.47,9.47,0,0,0-.39,2.34Z"/><path d="M1356.75,55.84c0-3.7-.06-6.89-.26-9.81h5l.19,6.17h.26c1.43-4.22,4.88-6.89,8.71-6.89a6.22,6.22,0,0,1,1.63.2V50.9a8.64,8.64,0,0,0-2-.19c-4,0-6.89,3-7.67,7.34a16.11,16.11,0,0,0-.26,2.67V77.49h-5.66Z"/><path d="M1380.54,62.8c.13,7.73,5.07,10.92,10.79,10.92a20.64,20.64,0,0,0,8.71-1.63l1,4.1a25.51,25.51,0,0,1-10.47,2c-9.68,0-15.47-6.37-15.47-15.86s5.59-17,14.76-17c10.27,0,13,9,13,14.82a20.6,20.6,0,0,1-.2,2.67Zm16.77-4.1c.07-3.64-1.49-9.29-7.93-9.29-5.78,0-8.32,5.33-8.77,9.29Z"/><path d="M1409.14,71.64a15,15,0,0,0,7.54,2.27c4.16,0,6.11-2.08,6.11-4.68s-1.62-4.22-5.85-5.78c-5.65-2-8.32-5.14-8.32-8.91,0-5.07,4.1-9.23,10.86-9.23a15.68,15.68,0,0,1,7.73,1.95l-1.43,4.16a12.22,12.22,0,0,0-6.43-1.82c-3.38,0-5.27,1.95-5.27,4.29,0,2.6,1.89,3.77,6,5.33,5.46,2.08,8.26,4.81,8.26,9.49,0,5.53-4.29,9.43-11.77,9.43a18,18,0,0,1-8.84-2.15Z"/><path d="M1434.88,71.64a15,15,0,0,0,7.54,2.27c4.16,0,6.11-2.08,6.11-4.68s-1.62-4.22-5.85-5.78c-5.65-2-8.32-5.14-8.32-8.91,0-5.07,4.1-9.23,10.86-9.23a15.68,15.68,0,0,1,7.73,1.95l-1.43,4.16a12.22,12.22,0,0,0-6.43-1.82c-3.38,0-5.27,1.95-5.27,4.29,0,2.6,1.89,3.77,6,5.33,5.46,2.08,8.26,4.81,8.26,9.49,0,5.53-4.29,9.43-11.77,9.43a18,18,0,0,1-8.84-2.15Z"/><path d="M1467.77,37.19a3.54,3.54,0,0,1-7.08,0,3.48,3.48,0,0,1,3.57-3.58A3.39,3.39,0,0,1,1467.77,37.19Zm-6.37,40.3V46h5.72V77.49Z"/><path d="M1476.35,77.49c.13-2.15.26-5.33.26-8.13v-38h5.66V51.1h.13c2-3.51,5.65-5.79,10.72-5.79,7.8,0,13.33,6.5,13.26,16.06,0,11.24-7.08,16.83-14.1,16.83-4.55,0-8.19-1.75-10.53-5.91h-.2l-.26,5.2Zm5.92-12.61a10.76,10.76,0,0,0,.26,2.08,8.82,8.82,0,0,0,8.58,6.69c6,0,9.55-4.87,9.55-12.09,0-6.3-3.25-11.7-9.36-11.7a9.12,9.12,0,0,0-8.71,7,11.3,11.3,0,0,0-.32,2.34Z"/><path d="M1513.59,31.34h5.72V77.49h-5.72Z"/><path d="M1532.12,62.8c.13,7.73,5.07,10.92,10.79,10.92a20.67,20.67,0,0,0,8.71-1.63l1,4.1a25.55,25.55,0,0,1-10.47,2c-9.69,0-15.47-6.37-15.47-15.86s5.59-17,14.76-17c10.27,0,13,9,13,14.82a20.6,20.6,0,0,1-.2,2.67Zm16.77-4.1c.07-3.64-1.49-9.29-7.93-9.29-5.79,0-8.32,5.33-8.78,9.29Z"/><path d="M167,193.5,160.58,213H152.3l21.07-62H183l21.16,62h-8.56L189,193.5Zm20.33-6.26-6.07-17.85c-1.38-4-2.3-7.72-3.22-11.31h-.19c-.92,3.68-1.93,7.45-3.12,11.22l-6.08,17.94Z"/><path d="M317.92,151.47a78.12,78.12,0,0,1,14.63-1.29c8,0,13.15,1.38,17,4.51,3.22,2.39,5.15,6.07,5.15,10.95,0,6-4,11.22-10.49,13.62v.18C350.12,180.91,357,185.79,357,195a16.73,16.73,0,0,1-5.25,12.42c-4.32,4-11.31,5.79-21.43,5.79a95.24,95.24,0,0,1-12.42-.73Zm8,25.39h7.27c8.47,0,13.43-4.41,13.43-10.39,0-7.27-5.52-10.12-13.61-10.12a34.17,34.17,0,0,0-7.09.55Zm0,29.72a43.6,43.6,0,0,0,6.72.37c8.28,0,15.91-3,15.91-12.06,0-8.46-7.26-11.95-16-11.95h-6.63Z"/><path d="M509.47,210.63c-2.94,1.47-8.83,2.94-16.37,2.94-17.48,0-30.64-11-30.64-31.37,0-19.41,13.16-32.57,32.38-32.57,7.73,0,12.61,1.66,14.72,2.76l-1.93,6.53a29.2,29.2,0,0,0-12.51-2.57c-14.54,0-24.2,9.29-24.2,25.57,0,15.18,8.74,24.93,23.83,24.93a32.07,32.07,0,0,0,13.06-2.57Z"/><path d="M621.39,151.47a115.46,115.46,0,0,1,17-1.29c11.5,0,19.69,2.67,25.12,7.73s8.74,12.24,8.74,22.27-3.13,18.39-8.93,24.1S648,213.2,635.93,213.2a129.37,129.37,0,0,1-14.54-.73Zm8,54.83a50.18,50.18,0,0,0,8.09.46c17.11,0,26.4-9.57,26.4-26.31.1-14.63-8.18-23.92-25.11-23.92a45.36,45.36,0,0,0-9.38.83Z"/><rect class="cls-1" x="1079.5" y="106.5" width="151" height="151"/><path d="M1228,109V255H1082V109h146m5-5H1077V260h156V104Z"/><path d="M1143,193.5l-6.44,19.5h-8.28l21.07-62H1159l21.16,62h-8.56L1165,193.5Zm20.33-6.26-6.07-17.85c-1.38-4-2.3-7.72-3.22-11.31h-.18c-.92,3.68-1.94,7.45-3.13,11.22l-6.08,17.94Z"/><rect class="cls-1" x="1391.5" y="262.5" width="151" height="151"/><path d="M1540,265V411H1394V265h146m5-5H1389V416h156V260Z"/><path d="M1449.92,307.47a78.12,78.12,0,0,1,14.63-1.29c8,0,13.15,1.38,17,4.51,3.22,2.39,5.15,6.07,5.15,10.95,0,6-4,11.22-10.49,13.62v.18c5.89,1.47,12.79,6.35,12.79,15.55a16.73,16.73,0,0,1-5.25,12.42c-4.32,3.95-11.31,5.79-21.43,5.79a95.24,95.24,0,0,1-12.42-.73Zm8,25.39h7.27c8.47,0,13.43-4.41,13.43-10.39,0-7.27-5.52-10.12-13.61-10.12a34.17,34.17,0,0,0-7.09.55Zm0,29.72a43.6,43.6,0,0,0,6.72.37c8.28,0,15.91-3,15.91-12.06,0-8.46-7.26-11.95-16-11.95h-6.63Z"/><rect class="cls-1" x="1235.5" y="418.5" width="151" height="151"/><path d="M1384,421V567H1238V421h146m5-5H1233V572h156V416Z"/><path d="M1329.47,522.63c-2.94,1.47-8.83,2.94-16.37,2.94-17.48,0-30.64-11-30.64-31.37,0-19.41,13.16-32.57,32.38-32.57,7.73,0,12.61,1.66,14.72,2.76l-1.93,6.53a29.2,29.2,0,0,0-12.51-2.57c-14.54,0-24.2,9.29-24.2,25.57,0,15.18,8.74,24.93,23.83,24.93a32.07,32.07,0,0,0,13.06-2.57Z"/><rect class="cls-1" x="923.5" y="574.5" width="151" height="151"/><path d="M1072,577V723H926V577h146m5-5H921V728h156V572Z"/><path d="M973.39,619.47a115.46,115.46,0,0,1,17-1.29c11.5,0,19.69,2.67,25.12,7.73s8.74,12.24,8.74,22.27-3.13,18.39-8.93,24.1-15.36,8.92-27.41,8.92a129.37,129.37,0,0,1-14.54-.73Zm8,54.83a50.18,50.18,0,0,0,8.09.46c17.11,0,26.4-9.57,26.4-26.31.1-14.63-8.18-23.92-25.11-23.92a45.36,45.36,0,0,0-9.38.83Z"/><path d="M1019.18,778c0,20.33-7.55,31.55-20.8,31.55-11.68,0-19.59-10.95-19.77-30.73,0-20,8.64-31.09,20.79-31.09C1012,747.72,1019.18,758.94,1019.18,778Zm-32.48.92c0,15.54,4.79,24.38,12.14,24.38,8.28,0,12.24-9.66,12.24-24.94,0-14.71-3.77-24.37-12.14-24.37C991.85,754,986.7,762.62,986.7,778.91Z"/><path d="M1153.19,756.4H1153L1142.62,762l-1.57-6.17,13.06-7h6.9v59.8h-7.82Z"/><path d="M1291.62,808.65v-5l6.35-6.16c15.27-14.54,22.17-22.27,22.26-31.28,0-6.07-2.94-11.68-11.86-11.68-5.43,0-9.94,2.76-12.7,5.06l-2.57-5.71a26.25,26.25,0,0,1,16.92-6.07c12.88,0,18.31,8.83,18.31,17.39,0,11-8,20-20.61,32.1l-4.78,4.42v.18h26.86v6.72Z"/><path d="M1449.55,799.36a27.1,27.1,0,0,0,13.25,3.77c10.4,0,13.62-6.62,13.53-11.59-.1-8.37-7.64-12-15.46-12h-4.51v-6.07h4.51c5.89,0,13.34-3,13.34-10.12,0-4.79-3-9-10.49-9a22,22,0,0,0-12,4l-2.11-5.89c3.13-2.3,9.2-4.6,15.64-4.6,11.77,0,17.11,7,17.11,14.26,0,6.16-3.68,11.41-11,14.07v.19c7.36,1.47,13.34,7,13.34,15.36,0,9.57-7.45,17.94-21.81,17.94-6.71,0-12.6-2.11-15.54-4Z"/><path d="M891.37,649.11c0,20.33-7.55,31.55-20.8,31.55-11.68,0-19.59-10.95-19.78-30.73,0-20,8.65-31.09,20.8-31.09C884.19,618.84,891.37,630.06,891.37,649.11Zm-32.48.92c0,15.54,4.78,24.38,12.14,24.38,8.28,0,12.24-9.66,12.24-24.94,0-14.71-3.77-24.37-12.14-24.37C864,625.1,858.89,633.74,858.89,650Z"/><path d="M869.2,471.4H869L858.62,477l-1.57-6.17,13.07-7H877v59.8H869.2Z"/><path d="M851.62,367.65v-5l6.35-6.16c15.27-14.54,22.17-22.26,22.26-31.28,0-6.07-2.94-11.68-11.86-11.68-5.43,0-9.94,2.76-12.7,5.06l-2.58-5.71A26.3,26.3,0,0,1,870,306.84c12.88,0,18.31,8.83,18.31,17.39,0,11-8,20-20.61,32.1l-4.78,4.42v.18H889.8v6.72Z"/><path d="M853.55,202.36a27.1,27.1,0,0,0,13.25,3.77c10.4,0,13.62-6.62,13.53-11.59-.1-8.37-7.64-12-15.46-12h-4.51v-6.07h4.51c5.89,0,13.34-3,13.34-10.12,0-4.79-3-9-10.49-9a22,22,0,0,0-12,4l-2.11-5.89c3.13-2.3,9.2-4.6,15.64-4.6,11.77,0,17.11,7,17.11,14.26,0,6.16-3.68,11.41-11,14.08v.18c7.36,1.47,13.34,7,13.34,15.36,0,9.57-7.45,17.94-21.81,17.94-6.71,0-12.6-2.11-15.54-4Z"/></g></svg>