<?xml version="1.0" encoding="utf-8"?>
<!-- Generator: Adobe Illustrator 23.0.6, SVG Export Plug-In . SVG Version: 6.00 Build 0)  -->
<svg version="1.1" xmlns="http://www.w3.org/2000/svg" xmlns:xlink="http://www.w3.org/1999/xlink" x="0px" y="0px"
	 viewBox="0 0 1946 641" style="enable-background:new 0 0 1946 641;" xml:space="preserve">
<style type="text/css">
	.st0{fill:#FFFFFF;}
	.st1{fill:none;stroke:#FF7BAC;stroke-width:5;stroke-miterlimit:10;}
	.st2{fill:none;stroke:#000000;stroke-width:5;stroke-miterlimit:10;}
	.st3{fill:none;stroke:#7AC943;stroke-width:5;stroke-miterlimit:10;}
	.st4{fill:none;stroke:#3FA9F5;stroke-width:5;stroke-miterlimit:10;}
	.st5{fill:#FFFFFF;stroke:#000000;stroke-width:5;stroke-miterlimit:10;}
	.st6{display:none;}
	.st7{display:inline;fill:none;stroke:#3FA9F5;stroke-width:5;stroke-miterlimit:10;}
</style>
<g id="Layer_1">
	<rect x="-0.5" y="0.5" class="st0" width="1946" height="641"/>
	<line class="st1" x1="36" y1="305.5" x2="891" y2="296.5"/>
	<line class="st2" x1="460.5" y1="33" x2="460.5" y2="563"/>
	<path class="st3" d="M25.5,305.5c77.55-164.28,246.75-270.75,433-272.48c186-1.73,357.08,101.29,438,263.75"/>
	<path class="st4" d="M896.5,296.5c-65.49,157.43-140.64,270.82-223,270c-177.21-1.76-252.32-530.95-428-532
		c-63.77-0.38-137.48,68.84-220,271"/>
	<g>
		<path d="M268.76,624.87c2.34,1.44,5.76,2.64,9.36,2.64c5.34,0,8.46-2.82,8.46-6.9c0-3.78-2.16-5.94-7.62-8.04
			c-6.6-2.34-10.68-5.76-10.68-11.46c0-6.3,5.22-10.98,13.08-10.98c4.14,0,7.14,0.96,8.94,1.98l-1.44,4.26
			c-1.32-0.72-4.02-1.92-7.68-1.92c-5.52,0-7.62,3.3-7.62,6.06c0,3.78,2.46,5.64,8.04,7.8c6.84,2.64,10.32,5.94,10.32,11.88
			c0,6.24-4.62,11.64-14.16,11.64c-3.9,0-8.16-1.14-10.32-2.58L268.76,624.87z"/>
		<path d="M304.76,594.03c0.06,1.8-1.26,3.24-3.36,3.24c-1.86,0-3.18-1.44-3.18-3.24c0-1.86,1.38-3.3,3.3-3.3
			C303.5,590.73,304.76,592.17,304.76,594.03z M298.88,631.23v-29.04h5.28v29.04H298.88z"/>
		<path d="M312.92,610.05c0-3-0.06-5.46-0.24-7.86h4.68l0.3,4.8h0.12c1.44-2.76,4.8-5.46,9.6-5.46c4.02,0,10.26,2.4,10.26,12.36
			v17.34h-5.28v-16.74c0-4.68-1.74-8.58-6.72-8.58c-3.48,0-6.18,2.46-7.08,5.4c-0.24,0.66-0.36,1.56-0.36,2.46v17.46h-5.28V610.05z"
			/>
		<path d="M370.52,623.31c0,3,0.06,5.64,0.24,7.92h-4.68l-0.3-4.74h-0.12c-1.38,2.34-4.44,5.4-9.6,5.4
			c-4.56,0-10.02-2.52-10.02-12.72v-16.98h5.28v16.08c0,5.52,1.68,9.24,6.48,9.24c3.54,0,6-2.46,6.96-4.8
			c0.3-0.78,0.48-1.74,0.48-2.7v-17.82h5.28V623.31z"/>
		<path d="M378.56,625.83c1.56,1.02,4.32,2.1,6.96,2.1c3.84,0,5.64-1.92,5.64-4.32c0-2.52-1.5-3.9-5.4-5.34
			c-5.22-1.86-7.68-4.74-7.68-8.22c0-4.68,3.78-8.52,10.02-8.52c2.94,0,5.52,0.84,7.14,1.8l-1.32,3.84
			c-1.14-0.72-3.24-1.68-5.94-1.68c-3.12,0-4.86,1.8-4.86,3.96c0,2.4,1.74,3.48,5.52,4.92c5.04,1.92,7.62,4.44,7.62,8.76
			c0,5.1-3.96,8.7-10.86,8.7c-3.18,0-6.12-0.78-8.16-1.98L378.56,625.83z"/>
		<path d="M429.32,616.47c0,10.74-7.44,15.42-14.46,15.42c-7.86,0-13.92-5.76-13.92-14.94c0-9.72,6.36-15.42,14.4-15.42
			C423.68,601.53,429.32,607.59,429.32,616.47z M406.28,616.77c0,6.36,3.66,11.16,8.82,11.16c5.04,0,8.82-4.74,8.82-11.28
			c0-4.92-2.46-11.16-8.7-11.16C408.98,605.49,406.28,611.25,406.28,616.77z"/>
		<path d="M441.86,594.03c0.06,1.8-1.26,3.24-3.36,3.24c-1.86,0-3.18-1.44-3.18-3.24c0-1.86,1.38-3.3,3.3-3.3
			C440.6,590.73,441.86,592.17,441.86,594.03z M435.98,631.23v-29.04h5.28v29.04H435.98z"/>
		<path d="M475.1,588.63v35.1c0,2.58,0.06,5.52,0.24,7.5h-4.74l-0.24-5.04h-0.12c-1.62,3.24-5.16,5.7-9.9,5.7
			c-7.02,0-12.42-5.94-12.42-14.76c-0.06-9.66,5.94-15.6,13.02-15.6c4.44,0,7.44,2.1,8.76,4.44h0.12v-17.34H475.1z M469.82,614.01
			c0-0.66-0.06-1.56-0.24-2.22c-0.78-3.36-3.66-6.12-7.62-6.12c-5.46,0-8.7,4.8-8.7,11.22c0,5.88,2.88,10.74,8.58,10.74
			c3.54,0,6.78-2.34,7.74-6.3c0.18-0.72,0.24-1.44,0.24-2.28V614.01z"/>
		<path d="M499.94,631.23l-0.42-3.66h-0.18c-1.62,2.28-4.74,4.32-8.88,4.32c-5.88,0-8.88-4.14-8.88-8.34
			c0-7.02,6.24-10.86,17.46-10.8v-0.6c0-2.4-0.66-6.72-6.6-6.72c-2.7,0-5.52,0.84-7.56,2.16l-1.2-3.48c2.4-1.56,5.88-2.58,9.54-2.58
			c8.88,0,11.04,6.06,11.04,11.88v10.86c0,2.52,0.12,4.98,0.48,6.96H499.94z M499.16,616.41c-5.76-0.12-12.3,0.9-12.3,6.54
			c0,3.42,2.28,5.04,4.98,5.04c3.78,0,6.18-2.4,7.02-4.86c0.18-0.54,0.3-1.14,0.3-1.68V616.41z"/>
		<path d="M512.78,588.63h5.28v42.6h-5.28V588.63z"/>
		<path d="M539.84,591.33c2.28-0.48,5.88-0.84,9.54-0.84c5.22,0,8.58,0.9,11.1,2.94c2.1,1.56,3.36,3.96,3.36,7.14
			c0,3.9-2.58,7.32-6.84,8.88v0.12c3.84,0.96,8.34,4.14,8.34,10.14c0,3.48-1.38,6.12-3.42,8.1c-2.82,2.58-7.38,3.78-13.98,3.78
			c-3.6,0-6.36-0.24-8.1-0.48V591.33z M545.06,607.89h4.74c5.52,0,8.76-2.88,8.76-6.78c0-4.74-3.6-6.6-8.88-6.6
			c-2.4,0-3.78,0.18-4.62,0.36V607.89z M545.06,627.27c1.02,0.18,2.52,0.24,4.38,0.24c5.4,0,10.38-1.98,10.38-7.86
			c0-5.52-4.74-7.8-10.44-7.8h-4.32V627.27z"/>
		<path d="M588.26,631.23l-0.42-3.66h-0.18c-1.62,2.28-4.74,4.32-8.88,4.32c-5.88,0-8.88-4.14-8.88-8.34
			c0-7.02,6.24-10.86,17.46-10.8v-0.6c0-2.4-0.66-6.72-6.6-6.72c-2.7,0-5.52,0.84-7.56,2.16l-1.2-3.48c2.4-1.56,5.88-2.58,9.54-2.58
			c8.88,0,11.04,6.06,11.04,11.88v10.86c0,2.52,0.12,4.98,0.48,6.96H588.26z M587.48,616.41c-5.76-0.12-12.3,0.9-12.3,6.54
			c0,3.42,2.28,5.04,4.98,5.04c3.78,0,6.18-2.4,7.02-4.86c0.18-0.54,0.3-1.14,0.3-1.68V616.41z"/>
		<path d="M600.38,625.83c1.56,1.02,4.32,2.1,6.96,2.1c3.84,0,5.64-1.92,5.64-4.32c0-2.52-1.5-3.9-5.4-5.34
			c-5.22-1.86-7.68-4.74-7.68-8.22c0-4.68,3.78-8.52,10.02-8.52c2.94,0,5.52,0.84,7.14,1.8l-1.32,3.84
			c-1.14-0.72-3.24-1.68-5.94-1.68c-3.12,0-4.86,1.8-4.86,3.96c0,2.4,1.74,3.48,5.52,4.92c5.04,1.92,7.62,4.44,7.62,8.76
			c0,5.1-3.96,8.7-10.86,8.7c-3.18,0-6.12-0.78-8.16-1.98L600.38,625.83z"/>
		<path d="M630.74,594.03c0.06,1.8-1.26,3.24-3.36,3.24c-1.86,0-3.18-1.44-3.18-3.24c0-1.86,1.38-3.3,3.3-3.3
			C629.48,590.73,630.74,592.17,630.74,594.03z M624.86,631.23v-29.04h5.28v29.04H624.86z"/>
		<path d="M638.18,625.83c1.56,1.02,4.32,2.1,6.96,2.1c3.84,0,5.64-1.92,5.64-4.32c0-2.52-1.5-3.9-5.4-5.34
			c-5.22-1.86-7.68-4.74-7.68-8.22c0-4.68,3.78-8.52,10.02-8.52c2.94,0,5.52,0.84,7.14,1.8l-1.32,3.84
			c-1.14-0.72-3.24-1.68-5.94-1.68c-3.12,0-4.86,1.8-4.86,3.96c0,2.4,1.74,3.48,5.52,4.92c5.04,1.92,7.62,4.44,7.62,8.76
			c0,5.1-3.96,8.7-10.86,8.7c-3.18,0-6.12-0.78-8.16-1.98L638.18,625.83z"/>
	</g>
	<line class="st1" x1="1061" y1="295.5" x2="1916" y2="286.5"/>
	<g>
		<path d="M1368.7,580.79v16.92h19.56v-16.92h5.28v40.44h-5.28v-18.96h-19.56v18.96h-5.22v-40.44H1368.7z"/>
		<path d="M1418.5,621.23l-0.42-3.66h-0.18c-1.62,2.28-4.74,4.32-8.88,4.32c-5.88,0-8.88-4.14-8.88-8.34
			c0-7.02,6.24-10.86,17.46-10.8v-0.6c0-2.4-0.66-6.72-6.6-6.72c-2.7,0-5.52,0.84-7.56,2.16l-1.2-3.48c2.4-1.56,5.88-2.58,9.54-2.58
			c8.88,0,11.04,6.06,11.04,11.88v10.86c0,2.52,0.12,4.98,0.48,6.96H1418.5z M1417.72,606.41c-5.76-0.12-12.3,0.9-12.3,6.54
			c0,3.42,2.28,5.04,4.98,5.04c3.78,0,6.18-2.4,7.02-4.86c0.18-0.54,0.3-1.14,0.3-1.68V606.41z"/>
		<path d="M1447.42,621.23l-0.42-3.66h-0.18c-1.62,2.28-4.74,4.32-8.88,4.32c-5.88,0-8.88-4.14-8.88-8.34
			c0-7.02,6.24-10.86,17.46-10.8v-0.6c0-2.4-0.66-6.72-6.6-6.72c-2.7,0-5.52,0.84-7.56,2.16l-1.2-3.48c2.4-1.56,5.88-2.58,9.54-2.58
			c8.88,0,11.04,6.06,11.04,11.88v10.86c0,2.52,0.12,4.98,0.48,6.96H1447.42z M1446.64,606.41c-5.76-0.12-12.3,0.9-12.3,6.54
			c0,3.42,2.28,5.04,4.98,5.04c3.78,0,6.18-2.4,7.02-4.86c0.18-0.54,0.3-1.14,0.3-1.68V606.41z"/>
		<path d="M1460.26,601.25c0-3.42-0.06-6.36-0.24-9.06h4.62l0.18,5.7h0.24c1.32-3.9,4.5-6.36,8.04-6.36c0.6,0,1.02,0.06,1.5,0.18
			v4.98c-0.54-0.12-1.08-0.18-1.8-0.18c-3.72,0-6.36,2.82-7.08,6.78c-0.12,0.72-0.24,1.56-0.24,2.46v15.48h-5.22V601.25z"/>
		<path d="M1492.78,581.33c2.28-0.48,5.88-0.84,9.54-0.84c5.22,0,8.58,0.9,11.1,2.94c2.1,1.56,3.36,3.96,3.36,7.14
			c0,3.9-2.58,7.32-6.84,8.88v0.12c3.84,0.96,8.34,4.14,8.34,10.14c0,3.48-1.38,6.12-3.42,8.1c-2.82,2.58-7.38,3.78-13.98,3.78
			c-3.6,0-6.36-0.24-8.1-0.48V581.33z M1498,597.89h4.74c5.52,0,8.76-2.88,8.76-6.78c0-4.74-3.6-6.6-8.88-6.6
			c-2.4,0-3.78,0.18-4.62,0.36V597.89z M1498,617.27c1.02,0.18,2.52,0.24,4.38,0.24c5.4,0,10.38-1.98,10.38-7.86
			c0-5.52-4.74-7.8-10.44-7.8H1498V617.27z"/>
		<path d="M1541.2,621.23l-0.42-3.66h-0.18c-1.62,2.28-4.74,4.32-8.88,4.32c-5.88,0-8.88-4.14-8.88-8.34
			c0-7.02,6.24-10.86,17.46-10.8v-0.6c0-2.4-0.66-6.72-6.6-6.72c-2.7,0-5.52,0.84-7.56,2.16l-1.2-3.48c2.4-1.56,5.88-2.58,9.54-2.58
			c8.88,0,11.04,6.06,11.04,11.88v10.86c0,2.52,0.12,4.98,0.48,6.96H1541.2z M1540.42,606.41c-5.76-0.12-12.3,0.9-12.3,6.54
			c0,3.42,2.28,5.04,4.98,5.04c3.78,0,6.18-2.4,7.02-4.86c0.18-0.54,0.3-1.14,0.3-1.68V606.41z"/>
		<path d="M1553.32,615.83c1.56,1.02,4.32,2.1,6.96,2.1c3.84,0,5.64-1.92,5.64-4.32c0-2.52-1.5-3.9-5.4-5.34
			c-5.22-1.86-7.68-4.74-7.68-8.22c0-4.68,3.78-8.52,10.02-8.52c2.94,0,5.52,0.84,7.14,1.8l-1.32,3.84
			c-1.14-0.72-3.24-1.68-5.94-1.68c-3.12,0-4.86,1.8-4.86,3.96c0,2.4,1.74,3.48,5.52,4.92c5.04,1.92,7.62,4.44,7.62,8.76
			c0,5.1-3.96,8.7-10.86,8.7c-3.18,0-6.12-0.78-8.16-1.98L1553.32,615.83z"/>
		<path d="M1583.68,584.03c0.06,1.8-1.26,3.24-3.36,3.24c-1.86,0-3.18-1.44-3.18-3.24c0-1.86,1.38-3.3,3.3-3.3
			C1582.42,580.73,1583.68,582.17,1583.68,584.03z M1577.8,621.23v-29.04h5.28v29.04H1577.8z"/>
		<path d="M1591.12,615.83c1.56,1.02,4.32,2.1,6.96,2.1c3.84,0,5.64-1.92,5.64-4.32c0-2.52-1.5-3.9-5.4-5.34
			c-5.22-1.86-7.68-4.74-7.68-8.22c0-4.68,3.78-8.52,10.02-8.52c2.94,0,5.52,0.84,7.14,1.8l-1.32,3.84
			c-1.14-0.72-3.24-1.68-5.94-1.68c-3.12,0-4.86,1.8-4.86,3.96c0,2.4,1.74,3.48,5.52,4.92c5.04,1.92,7.62,4.44,7.62,8.76
			c0,5.1-3.96,8.7-10.86,8.7c-3.18,0-6.12-0.78-8.16-1.98L1591.12,615.83z"/>
	</g>
	<path class="st3" d="M1921.5,286.5v266l-436,0.5V23c0,0-435-1.5-435-0.5s0,274,0,278s0-4,0-4"/>
	<circle class="st5" cx="896.5" cy="296.5" r="8"/>
	<circle class="st5" cx="25.5" cy="305.5" r="8"/>
	<polyline class="st4" points="1050.35,290.97 1050.35,165.35 1273.35,165.35 1273.35,408.35 1485.35,408.35 1485.35,165.35 
		1702.35,165.35 1702.35,408.35 1921.35,408.35 1921.35,286.39 	"/>
	<circle class="st5" cx="1050.5" cy="295.5" r="8"/>
	<circle class="st5" cx="1921.5" cy="286.5" r="8"/>
</g>
<g id="Layer_2" class="st6">
	<polyline class="st7" points="1050.35,288.97 1050.35,163.35 1273.35,163.35 1273.35,406.35 1485.35,406.35 1485.35,163.35 
		1702.35,163.35 1702.35,406.35 1921.35,406.35 1921.35,284.39 	"/>
</g>
</svg>
