<svg xmlns="http://www.w3.org/2000/svg" viewBox="0 0 1759.64 443"><defs><style>.cls-1,.cls-5{fill:#fff;}.cls-2,.cls-3{fill:none;}.cls-2,.cls-3,.cls-5{stroke:#000;stroke-miterlimit:10;}.cls-2,.cls-5{stroke-width:4px;}.cls-3{stroke-width:3px;}.cls-4{isolation:isolate;}</style></defs><title>haarrec</title><g id="Layer_2" data-name="Layer 2"><rect class="cls-1" width="1723" height="443"/></g><g id="Layer_1" data-name="Layer 1"><path d="M11.11,381.91l3,4.58c.8,1.19,1.46,2.29,2.16,3.48h.13c.71-1.28,1.41-2.38,2.11-3.52l3-4.54h4.18l-7.26,10.3,7.48,11h-4.4l-3.13-4.79c-.83-1.24-1.54-2.42-2.29-3.7H16c-.71,1.28-1.46,2.42-2.25,3.7l-3.08,4.79H6.44L14,392.34,6.79,381.91Z"/><path d="M38.08,372.67c-3.21,4.32-5.54,10-5.54,18a29.7,29.7,0,0,0,5.54,17.87H35a28.47,28.47,0,0,1-5.76-17.87,29,29,0,0,1,5.76-18Z"/><path d="M42.17,387.68c0-2.2,0-4-.18-5.77h3.44l.22,3.52h.08a7.85,7.85,0,0,1,7.05-4c2.94,0,7.52,1.76,7.52,9.07v12.71H56.43V390.94c0-3.44-1.28-6.3-4.93-6.3A5.7,5.7,0,0,0,46,390.41v12.8H42.17Z"/><path d="M64.26,408.54a29.83,29.83,0,0,0,5.54-18,29.17,29.17,0,0,0-5.54-17.87h3c2.82,3.61,5.76,9.24,5.76,17.91a28.55,28.55,0,0,1-5.76,18Z"/><path class="cls-2" d="M923.09,61.59"/><line class="cls-2" x1="1327.09" y1="64.59" x2="1334.09" y2="64.59"/><line class="cls-2" x1="1341.09" y1="64.59" x2="1348.09" y2="64.59"/><line class="cls-2" x1="1355.09" y1="64.59" x2="1362.09" y2="64.59"/><rect class="cls-2" x="14.09" y="17.59" width="501" height="184"/><line class="cls-2" x1="123.09" y1="112.59" x2="232.09" y2="112.59"/><line class="cls-2" x1="148.09" y1="67.02" x2="148.09" y2="112.59"/><path d="M141.32,67.36a6.77,6.77,0,1,1,6.77,6.76A6.77,6.77,0,0,1,141.32,67.36Z"/><line class="cls-2" x1="206.09" y1="67.02" x2="206.09" y2="112.59"/><path d="M199.32,67.36a6.77,6.77,0,1,1,6.77,6.76A6.77,6.77,0,0,1,199.32,67.36Z"/><path d="M153.62,127.54c0,5.31-2,8.24-5.43,8.24-3.05,0-5.11-2.86-5.16-8s2.26-8.11,5.43-8.11S153.62,122.57,153.62,127.54Zm-8.48.24c0,4.06,1.25,6.36,3.17,6.36,2.16,0,3.19-2.52,3.19-6.5s-1-6.36-3.16-6.36C146.49,121.28,145.14,123.53,145.14,127.78Z"/><path d="M227.28,49V31.2h-.11l-3.9,1.9-.6-2.82,5.09-2.38h3.31V49Z"/><path d="M226.19,64l20.52-36.38h3.09L229.23,64Z"/><path d="M253.37,61.41l3.41-3.19c4.49-4.06,6.82-6.61,6.82-9.37,0-2.06-1.3-3.79-4.11-3.79a8.3,8.3,0,0,0-4.55,1.68L253.8,44.3A10.56,10.56,0,0,1,260.41,42c5.09,0,7.2,3.19,7.2,6.12,0,4.06-3.09,7-7.2,10.66l-1.68,1.52v.11H268v3H253.37Z"/><polyline class="cls-3" points="272.09 37.59 250.88 37.59 250.64 38.9 246.2 61.46 239.09 54.07"/><path class="cls-2" d="M539.73,173.22"/><line class="cls-2" x1="355.27" y1="112.12" x2="464.27" y2="112.12"/><line class="cls-2" x1="439.05" y1="66.4" x2="439.05" y2="111.98"/><path d="M432.28,66.74a6.77,6.77,0,1,1,6.77,6.77A6.77,6.77,0,0,1,432.28,66.74Z"/><line class="cls-2" x1="380.05" y1="157.55" x2="380.05" y2="111.98"/><path d="M386.82,157.21a6.77,6.77,0,1,1-6.77-6.77A6.78,6.78,0,0,1,386.82,157.21Z"/><path d="M385.79,99.08c0,5.3-2,8.23-5.42,8.23-3.05,0-5.11-2.86-5.16-8s2.25-8.11,5.42-8.11S385.79,94.11,385.79,99.08Zm-8.47.24c0,4.05,1.25,6.36,3.17,6.36,2.16,0,3.19-2.52,3.19-6.51s-1-6.36-3.17-6.36C378.66,92.81,377.32,95.07,377.32,99.32Z"/><path d="M459.24,47.9V30.09h-.11L455.23,32l-.6-2.81,5.09-2.38H463V47.9Z"/><path d="M458.15,62.9l20.52-36.38h3.09L461.18,62.9Z"/><path d="M485.33,60.3l3.41-3.2c4.49-4.06,6.82-6.6,6.82-9.36,0-2.06-1.3-3.79-4.11-3.79a8.23,8.23,0,0,0-4.55,1.68l-1.14-2.44a10.54,10.54,0,0,1,6.61-2.27c5.09,0,7.2,3.19,7.2,6.11,0,4.06-3.09,7-7.2,10.67l-1.68,1.52v.1H500v3H485.33Z"/><polyline class="cls-3" points="504.05 36.48 482.83 36.48 482.6 37.79 478.16 60.34 471.05 52.96"/><path d="M451.44,173.84v3.52H438.07v-3.52Z"/><path d="M458.86,179.9V162.09h-.11l-3.9,1.89-.6-2.81,5.09-2.38h3.31V179.9Z"/><path d="M457.77,194.9l20.52-36.38h3.09L460.81,194.9Z"/><path d="M485,192.3l3.41-3.2c4.49-4.06,6.82-6.6,6.82-9.36,0-2.06-1.3-3.79-4.11-3.79a8.23,8.23,0,0,0-4.55,1.68l-1.14-2.44a10.56,10.56,0,0,1,6.61-2.27c5.09,0,7.2,3.19,7.2,6.11,0,4.06-3.09,7-7.2,10.67l-1.68,1.52v.1h9.26v3H485Z"/><polyline class="cls-3" points="505.05 168.47 483.83 168.47 483.6 169.79 479.16 192.34 472.05 184.96"/><line class="cls-2" x1="424.85" y1="282.32" x2="355.49" y2="282.32"/><polygon points="358.47 272.15 340.85 282.32 358.47 292.49 358.47 272.15"/><line class="cls-2" x1="424.85" y1="387.32" x2="355.49" y2="387.32"/><polygon points="358.47 377.15 340.85 387.32 358.47 397.49 358.47 377.15"/><line class="cls-2" x1="883.85" y1="172.32" x2="1004.85" y2="172.32"/><line class="cls-2" x1="923.85" y1="172.32" x2="923.85" y2="61.32"/><line class="cls-2" x1="923.85" y1="63.32" x2="1008.85" y2="63.32"/><line class="cls-2" x1="580.85" y1="387.32" x2="496.85" y2="387.32"/><line class="cls-2" x1="810.85" y1="280.32" x2="741.49" y2="280.32"/><polygon points="744.47 270.15 726.85 280.32 744.47 290.49 744.47 270.15"/><line class="cls-2" x1="812.85" y1="173.32" x2="743.49" y2="173.32"/><polygon points="746.47 163.15 728.85 173.32 746.47 183.49 746.47 163.15"/><line class="cls-2" x1="966.85" y1="280.32" x2="882.85" y2="280.32"/><line class="cls-2" x1="1193.85" y1="171.32" x2="1124.49" y2="171.32"/><polygon points="1127.47 161.15 1109.85 171.32 1127.47 181.49 1127.47 161.15"/><line class="cls-2" x1="1195.85" y1="64.32" x2="1126.49" y2="64.32"/><polygon points="1129.47 54.15 1111.85 64.32 1129.47 74.49 1129.47 54.15"/><line class="cls-2" x1="1267.85" y1="171.32" x2="1351.85" y2="171.32"/><line class="cls-2" x1="1268.85" y1="64.32" x2="1320.85" y2="64.32"/><path class="cls-2" d="M1334.85,64.32"/><path class="cls-2" d="M1327.85,64.32"/><path class="cls-2" d="M1348.85,64.32"/><path class="cls-2" d="M1341.85,64.32"/><path class="cls-2" d="M1362.85,64.32"/><path class="cls-2" d="M1355.85,64.32"/><rect class="cls-2" x="234.85" y="248.32" width="105" height="66"/><rect class="cls-2" x="234.85" y="354.32" width="105" height="66"/><rect class="cls-2" x="624.85" y="140.32" width="105" height="66"/><rect class="cls-2" x="1007.85" y="31.32" width="105" height="66"/><rect class="cls-2" x="623.85" y="249.32" width="105" height="66"/><rect class="cls-2" x="1005.85" y="138.32" width="105" height="66"/><circle class="cls-2" cx="462.35" cy="282.82" r="37.5"/><g class="cls-4"><path d="M465,295.93v-2.37l3-2.95c7.3-6.95,10.6-10.65,10.65-15,0-2.91-1.41-5.59-5.68-5.59a9.72,9.72,0,0,0-6.07,2.42l-1.24-2.73a12.57,12.57,0,0,1,8.1-2.9c6.16,0,8.76,4.22,8.76,8.31,0,5.28-3.83,9.55-9.86,15.36l-2.29,2.11v.09h12.85v3.21Z"/></g><line class="cls-2" x1="448.85" y1="296.32" x2="448.85" y2="270.49"/><polygon points="460.79 280.16 458.65 282.15 448.85 271.61 439.05 282.15 436.91 280.16 448.85 267.32 460.79 280.16"/><circle class="cls-2" cx="461.35" cy="387.82" r="37.5"/><g class="cls-4"><path d="M464,400.93v-2.37l3-2.95c7.3-6.95,10.6-10.65,10.65-15,0-2.91-1.41-5.59-5.68-5.59a9.72,9.72,0,0,0-6.07,2.42l-1.24-2.73a12.57,12.57,0,0,1,8.1-2.9c6.16,0,8.76,4.22,8.76,8.31,0,5.28-3.83,9.55-9.86,15.36l-2.29,2.11v.09h12.85v3.21Z"/></g><line class="cls-2" x1="447.85" y1="401.32" x2="447.85" y2="375.49"/><polygon points="459.79 385.16 457.65 387.15 447.85 376.61 438.05 387.15 435.91 385.16 447.85 372.32 459.79 385.16"/><circle class="cls-2" cx="846.35" cy="279.82" r="37.5"/><g class="cls-4"><path d="M849,292.93v-2.37l3-2.95c7.3-6.95,10.6-10.65,10.65-15,0-2.91-1.41-5.59-5.68-5.59a9.72,9.72,0,0,0-6.07,2.42l-1.24-2.73a12.57,12.57,0,0,1,8.1-2.9c6.16,0,8.76,4.22,8.76,8.31,0,5.28-3.83,9.55-9.86,15.36l-2.29,2.11v.09h12.85v3.21Z"/></g><line class="cls-2" x1="831.85" y1="293.32" x2="831.85" y2="267.49"/><polygon points="843.79 277.16 841.65 279.15 831.85 268.61 822.05 279.15 819.91 277.16 831.85 264.32 843.79 277.16"/><circle class="cls-2" cx="848.35" cy="172.82" r="37.5"/><g class="cls-4"><path d="M851,185.93v-2.37l3-2.95c7.3-7,10.6-10.65,10.65-15,0-2.91-1.41-5.59-5.68-5.59a9.72,9.72,0,0,0-6.07,2.42l-1.24-2.73a12.57,12.57,0,0,1,8.1-2.9c6.16,0,8.76,4.22,8.76,8.31,0,5.28-3.83,9.55-9.86,15.36l-2.29,2.11v.09h12.85v3.21Z"/></g><line class="cls-2" x1="834.85" y1="186.32" x2="834.85" y2="160.49"/><polygon points="846.79 170.16 844.65 172.15 834.85 161.61 825.05 172.15 822.91 170.16 834.85 157.32 846.79 170.16"/><circle class="cls-2" cx="1232.17" cy="171.81" r="37.5"/><g class="cls-4"><path d="M1234.8,184.92v-2.37l3-3c7.31-7,10.61-10.65,10.65-15,0-2.9-1.41-5.58-5.68-5.58a9.75,9.75,0,0,0-6.07,2.42l-1.23-2.73a12.52,12.52,0,0,1,8.1-2.91c6.16,0,8.75,4.23,8.75,8.32,0,5.28-3.82,9.55-9.85,15.36l-2.29,2.11v.09h12.85v3.21Z"/></g><line class="cls-2" x1="1218.67" y1="185.31" x2="1218.67" y2="159.47"/><polygon points="1230.61 169.15 1228.47 171.14 1218.67 160.59 1208.87 171.14 1206.73 169.15 1218.67 156.31 1230.61 169.15"/><circle class="cls-2" cx="1232.17" cy="63.81" r="37.5"/><g class="cls-4"><path d="M1234.8,76.92V74.55l3-3c7.31-7,10.61-10.65,10.65-15,0-2.9-1.41-5.58-5.68-5.58a9.75,9.75,0,0,0-6.07,2.42l-1.23-2.73a12.52,12.52,0,0,1,8.1-2.91c6.16,0,8.75,4.23,8.75,8.32,0,5.28-3.82,9.55-9.85,15.36l-2.29,2.11v.09h12.85v3.21Z"/></g><line class="cls-2" x1="1218.67" y1="77.31" x2="1218.67" y2="51.47"/><polygon points="1230.61 61.15 1228.47 63.14 1218.67 52.59 1208.87 63.14 1206.73 61.15 1218.67 48.31 1230.61 61.15"/><g class="cls-4"><path d="M596.42,370.89h3.83v26.45h12.67v3.21h-16.5Z"/><path d="M618.6,390.6c.09,5.24,3.43,7.4,7.3,7.4a14.12,14.12,0,0,0,5.9-1.1l.66,2.77a17.19,17.19,0,0,1-7.09,1.32c-6.55,0-10.47-4.31-10.47-10.74s3.79-11.48,10-11.48c7,0,8.8,6.11,8.8,10a15.39,15.39,0,0,1-.13,1.8ZM630,387.83c0-2.46-1-6.29-5.37-6.29-3.91,0-5.63,3.61-5.94,6.29Z"/><path d="M640,379.25l4.18,12a53.67,53.67,0,0,1,1.72,5.46H646c.48-1.76,1.1-3.52,1.8-5.46l4.14-12h4l-8.36,21.3h-3.7l-8.1-21.3Z"/><path d="M661.36,390.6c.09,5.24,3.44,7.4,7.31,7.4a14.15,14.15,0,0,0,5.9-1.1l.66,2.77a17.23,17.23,0,0,1-7.09,1.32c-6.56,0-10.47-4.31-10.47-10.74s3.78-11.48,10-11.48c7,0,8.8,6.11,8.8,10a15.39,15.39,0,0,1-.13,1.8Zm11.36-2.77c0-2.46-1-6.29-5.37-6.29-3.92,0-5.63,3.61-5.94,6.29Z"/><path d="M681.25,369.31h3.87v31.24h-3.87Z"/><path d="M701.1,400.55V370.89h4.18l9.5,15a84.32,84.32,0,0,1,5.33,9.63l.08,0c-.35-4-.44-7.57-.44-12.19V370.89h3.61v29.66h-3.87l-9.42-15.05a92.85,92.85,0,0,1-5.54-9.9l-.13,0c.22,3.74.3,7.31.3,12.24v12.67Z"/><path d="M760.1,399.58a18.88,18.88,0,0,1-7.83,1.41c-8.36,0-14.66-5.28-14.66-15,0-9.28,6.3-15.57,15.49-15.57a15.94,15.94,0,0,1,7,1.32l-.93,3.12a14,14,0,0,0-6-1.23c-7,0-11.58,4.44-11.58,12.23,0,7.26,4.18,11.93,11.4,11.93a15.3,15.3,0,0,0,6.25-1.24Z"/><path d="M783.55,389.72c0,7.88-5.45,11.31-10.6,11.31-5.77,0-10.21-4.22-10.21-10.95,0-7.13,4.66-11.31,10.56-11.31C779.42,378.77,783.55,383.21,783.55,389.72Zm-16.9.22c0,4.67,2.69,8.19,6.47,8.19s6.47-3.48,6.47-8.27c0-3.61-1.8-8.19-6.38-8.19S766.65,385.9,766.65,389.94Z"/><path d="M790.59,390.6c.09,5.24,3.43,7.4,7.31,7.4a14.07,14.07,0,0,0,5.89-1.1l.66,2.77a17.14,17.14,0,0,1-7.08,1.32c-6.56,0-10.48-4.31-10.48-10.74s3.79-11.48,10-11.48c7,0,8.8,6.11,8.8,10a13.44,13.44,0,0,1-.13,1.8Zm11.35-2.77c0-2.46-1-6.29-5.36-6.29-3.92,0-5.64,3.61-6,6.29Z"/><path d="M837.15,373.09a8.37,8.37,0,0,0-4.32-1.14c-4.09,0-5.32,2.86-5.32,6.24v1.06h12.41v21.3h-3.87V382.2h-8.5v18.35h-3.87V382.2h-9v18.35h-3.83V382.2h-3v-2.95h3v-.79a9.67,9.67,0,0,1,2.56-7.09,7.37,7.37,0,0,1,5.45-2.06,9.06,9.06,0,0,1,3.74.92l-1,2.86a6,6,0,0,0-2.69-.75,3.58,3.58,0,0,0-2.77,1.15c-1.06,1.14-1.41,3.08-1.41,4.93v.83h9v-1.14c0-5.64,3.34-9.29,9.33-9.29a10.29,10.29,0,0,1,5.28,1.37Z"/><path d="M861.52,399.76A14.25,14.25,0,0,1,855.4,401c-6.42,0-10.6-4.36-10.6-10.87s4.49-11.31,11.44-11.31a12.93,12.93,0,0,1,5.37,1.1l-.88,3a9.1,9.1,0,0,0-4.49-1c-4.89,0-7.53,3.61-7.53,8.05,0,4.93,3.17,8,7.4,8a10.9,10.9,0,0,0,4.75-1.06Z"/><path d="M870.36,373.27a2.28,2.28,0,0,1-2.46,2.37,2.3,2.3,0,0,1-2.34-2.37,2.36,2.36,0,0,1,2.43-2.42A2.29,2.29,0,0,1,870.36,373.27Zm-4.31,27.28v-21.3h3.87v21.3Z"/><path d="M878.5,390.6c.09,5.24,3.43,7.4,7.31,7.4a14.07,14.07,0,0,0,5.89-1.1l.66,2.77a17.14,17.14,0,0,1-7.08,1.32c-6.56,0-10.48-4.31-10.48-10.74s3.79-11.48,10-11.48c7,0,8.8,6.11,8.8,10a13.44,13.44,0,0,1-.13,1.8Zm11.35-2.77c0-2.46-1-6.29-5.36-6.29-3.92,0-5.64,3.61-6,6.29Z"/><path d="M898.39,385c0-2.2,0-4-.18-5.77h3.43l.22,3.52H902a7.84,7.84,0,0,1,7-4c3,0,7.53,1.76,7.53,9.06v12.72h-3.87V388.27c0-3.43-1.28-6.29-4.93-6.29a5.51,5.51,0,0,0-5.2,4,5.7,5.7,0,0,0-.26,1.8v12.81h-3.87Z"/><path d="M927.3,373.13v6.12h5.54v2.95H927.3v11.48c0,2.65.74,4.14,2.9,4.14a8.84,8.84,0,0,0,2.25-.26l.17,2.9a9.45,9.45,0,0,1-3.43.53,5.34,5.34,0,0,1-4.18-1.63c-1.1-1.14-1.5-3-1.5-5.54V382.2h-3.3v-2.95h3.3v-5.1Z"/><path d="M936.67,396.59a10.12,10.12,0,0,0,5.1,1.54c2.82,0,4.14-1.41,4.14-3.17s-1.1-2.86-4-3.92c-3.83-1.36-5.63-3.47-5.63-6,0-3.44,2.77-6.25,7.34-6.25a10.58,10.58,0,0,1,5.24,1.32l-1,2.81a8.32,8.32,0,0,0-4.35-1.23c-2.29,0-3.57,1.32-3.57,2.91,0,1.76,1.28,2.55,4,3.6,3.7,1.41,5.59,3.26,5.59,6.43,0,3.74-2.9,6.38-8,6.38a12.15,12.15,0,0,1-6-1.45Z"/></g><g class="cls-4"><path d="M983,263.5h3.83v26.44h12.67v3.22H983Z"/><path d="M1005.2,283.21c.09,5.24,3.43,7.39,7.3,7.39a13.93,13.93,0,0,0,5.9-1.1l.66,2.78a17.36,17.36,0,0,1-7.09,1.32c-6.55,0-10.47-4.32-10.47-10.74s3.79-11.49,10-11.49c7,0,8.8,6.12,8.8,10a15.57,15.57,0,0,1-.13,1.8Zm11.35-2.77c.05-2.47-1-6.29-5.37-6.29-3.91,0-5.63,3.6-5.94,6.29Z"/><path d="M1026.58,271.86l4.18,12a55.31,55.31,0,0,1,1.72,5.45h.13c.48-1.76,1.1-3.52,1.8-5.45l4.14-12h4l-8.36,21.3h-3.7l-8.1-21.3Z"/><path d="M1048,283.21c.09,5.24,3.44,7.39,7.31,7.39a14,14,0,0,0,5.9-1.1l.66,2.78a17.4,17.4,0,0,1-7.09,1.32c-6.56,0-10.47-4.32-10.47-10.74s3.78-11.49,10-11.49c7,0,8.8,6.12,8.8,10a15.57,15.57,0,0,1-.13,1.8Zm11.36-2.77c0-2.47-1-6.29-5.37-6.29-3.92,0-5.63,3.6-5.94,6.29Z"/><path d="M1067.85,261.91h3.87v31.25h-3.87Z"/><path d="M1087.7,293.16V263.5h4.18l9.5,15a84.39,84.39,0,0,1,5.33,9.64l.08,0c-.35-4-.44-7.57-.44-12.19V263.5H1110v29.66h-3.87l-9.42-15.05a92.85,92.85,0,0,1-5.54-9.9l-.13,0c.22,3.74.3,7.3.3,12.23v12.68Z"/><path d="M1125.49,279.82v2.86h-10.87v-2.86Z"/><path d="M1137.2,268.16h-.09l-5,2.68-.74-2.94,6.24-3.35h3.31v28.61h-3.74Z"/><path d="M1182.78,292.19a19.05,19.05,0,0,1-7.83,1.41c-8.36,0-14.66-5.28-14.66-15,0-9.29,6.3-15.58,15.49-15.58a15.84,15.84,0,0,1,7,1.32l-.92,3.13a13.83,13.83,0,0,0-6-1.24c-7,0-11.58,4.45-11.58,12.24,0,7.26,4.18,11.92,11.4,11.92a15.31,15.31,0,0,0,6.25-1.23Z"/><path d="M1206.23,282.33c0,7.88-5.45,11.31-10.6,11.31-5.77,0-10.21-4.22-10.21-11,0-7.13,4.66-11.31,10.56-11.31C1202.1,271.37,1206.23,275.82,1206.23,282.33Zm-16.9.22c0,4.67,2.69,8.19,6.47,8.19s6.47-3.48,6.47-8.28c0-3.61-1.8-8.18-6.38-8.18S1189.33,278.5,1189.33,282.55Z"/><path d="M1213.27,283.21c.09,5.24,3.43,7.39,7.3,7.39a13.93,13.93,0,0,0,5.9-1.1l.66,2.78a17.34,17.34,0,0,1-7.08,1.32c-6.56,0-10.48-4.32-10.48-10.74s3.79-11.49,10-11.49c7,0,8.8,6.12,8.8,10a13.58,13.58,0,0,1-.13,1.8Zm11.35-2.77c.05-2.47-1-6.29-5.37-6.29-3.91,0-5.63,3.6-5.94,6.29Z"/><path d="M1259.82,265.7a8.3,8.3,0,0,0-4.31-1.15c-4.09,0-5.32,2.86-5.32,6.25v1.06h12.41v21.3h-3.88V274.81h-8.49v18.35h-3.87V274.81h-9v18.35h-3.83V274.81h-3v-2.95h3v-.79a9.65,9.65,0,0,1,2.56-7.09,7.33,7.33,0,0,1,5.45-2.07,9,9,0,0,1,3.74.93l-1,2.86a6,6,0,0,0-2.69-.75,3.61,3.61,0,0,0-2.77,1.14c-1.06,1.15-1.41,3.08-1.41,4.93v.84h9v-1.15c0-5.63,3.34-9.28,9.33-9.28a10.42,10.42,0,0,1,5.28,1.36Z"/><path d="M1284.2,292.36a14.22,14.22,0,0,1-6.12,1.24c-6.42,0-10.6-4.36-10.6-10.87s4.48-11.31,11.44-11.31a12.93,12.93,0,0,1,5.37,1.1l-.88,3a9,9,0,0,0-4.49-1c-4.89,0-7.53,3.61-7.53,8.05,0,4.93,3.17,8,7.4,8a11,11,0,0,0,4.75-1.06Z"/><path d="M1293,265.87a2.4,2.4,0,0,1-4.8,0,2.37,2.37,0,0,1,2.42-2.42A2.3,2.3,0,0,1,1293,265.87Zm-4.31,27.29v-21.3h3.87v21.3Z"/><path d="M1301.18,283.21c.09,5.24,3.43,7.39,7.31,7.39a13.91,13.91,0,0,0,5.89-1.1l.66,2.78a17.3,17.3,0,0,1-7.08,1.32c-6.56,0-10.48-4.32-10.48-10.74s3.79-11.49,10-11.49c7,0,8.8,6.12,8.8,10a13.58,13.58,0,0,1-.13,1.8Zm11.35-2.77c0-2.47-1-6.29-5.36-6.29-3.92,0-5.64,3.6-6,6.29Z"/><path d="M1321.07,277.62c0-2.2,0-4-.18-5.76h3.43l.22,3.52h.09a7.83,7.83,0,0,1,7-4c2.95,0,7.53,1.76,7.53,9.07v12.72h-3.87V280.88c0-3.43-1.28-6.29-4.93-6.29a5.5,5.5,0,0,0-5.2,4,5.7,5.7,0,0,0-.26,1.8v12.81h-3.87Z"/><path d="M1350,265.74v6.12h5.54v2.95H1350v11.48c0,2.64.74,4.14,2.9,4.14a8.33,8.33,0,0,0,2.25-.27l.17,2.91a9.45,9.45,0,0,1-3.43.53,5.37,5.37,0,0,1-4.18-1.63c-1.1-1.15-1.5-3-1.5-5.55V274.81h-3.3v-2.95h3.3v-5.11Z"/><path d="M1359.35,289.2a10.22,10.22,0,0,0,5.1,1.54c2.82,0,4.14-1.41,4.14-3.17s-1.1-2.86-4-3.92c-3.83-1.36-5.63-3.48-5.63-6,0-3.43,2.77-6.25,7.34-6.25a10.68,10.68,0,0,1,5.24,1.32l-1,2.82a8.23,8.23,0,0,0-4.35-1.23c-2.29,0-3.57,1.32-3.57,2.9,0,1.76,1.28,2.55,4,3.61,3.7,1.41,5.59,3.26,5.59,6.43,0,3.74-2.91,6.38-8,6.38a12.14,12.14,0,0,1-6-1.46Z"/></g><g class="cls-4"><path d="M1370.33,156h3.83v26.45h12.67v3.21h-16.5Z"/><path d="M1392.5,175.75c.09,5.24,3.44,7.39,7.31,7.39a14,14,0,0,0,5.9-1.1l.66,2.77a17.2,17.2,0,0,1-7.09,1.33c-6.56,0-10.47-4.32-10.47-10.74s3.78-11.49,10-11.49c7,0,8.8,6.12,8.8,10a15.6,15.6,0,0,1-.13,1.81Zm11.36-2.77c0-2.47-1-6.3-5.37-6.3-3.92,0-5.63,3.61-5.94,6.3Z"/><path d="M1413.89,164.4l4.18,12a55.31,55.31,0,0,1,1.72,5.45h.13c.48-1.76,1.1-3.52,1.8-5.45l4.14-12h4.05l-8.37,21.29h-3.69l-8.1-21.29Z"/><path d="M1435.27,175.75c.09,5.24,3.44,7.39,7.31,7.39a13.91,13.91,0,0,0,5.89-1.1l.66,2.77a17.1,17.1,0,0,1-7.08,1.33c-6.56,0-10.47-4.32-10.47-10.74s3.78-11.49,10-11.49c7,0,8.81,6.12,8.81,10a13.27,13.27,0,0,1-.14,1.81Zm11.36-2.77c0-2.47-1-6.3-5.37-6.3-3.92,0-5.64,3.61-5.94,6.3Z"/><path d="M1455.16,154.45H1459v31.24h-3.87Z"/><path d="M1475,185.69V156h4.18l9.51,15a82.7,82.7,0,0,1,5.32,9.64l.09-.05c-.35-4-.44-7.57-.44-12.19V156h3.61v29.66h-3.87l-9.42-15a93,93,0,0,1-5.54-9.91l-.14,0c.22,3.74.31,7.3.31,12.23v12.67Z"/><path d="M1512.8,172.36v2.86h-10.87v-2.86Z"/><path d="M1516.1,185.69v-2.37l3-2.95c7.31-7,10.61-10.65,10.65-15,0-2.91-1.4-5.59-5.67-5.59a9.75,9.75,0,0,0-6.08,2.42l-1.23-2.73a12.57,12.57,0,0,1,8.1-2.9c6.16,0,8.76,4.22,8.76,8.31,0,5.28-3.83,9.55-9.86,15.36l-2.29,2.11v.09h12.85v3.21Z"/><path d="M1570.09,184.73a19.11,19.11,0,0,1-7.84,1.41c-8.36,0-14.65-5.29-14.65-15,0-9.29,6.29-15.58,15.49-15.58a15.84,15.84,0,0,1,7,1.32l-.92,3.13a13.85,13.85,0,0,0-6-1.24c-7,0-11.57,4.45-11.57,12.24,0,7.26,4.18,11.92,11.4,11.92a15.31,15.31,0,0,0,6.25-1.23Z"/><path d="M1593.54,174.87c0,7.88-5.46,11.31-10.61,11.31-5.76,0-10.21-4.23-10.21-11,0-7.13,4.67-11.31,10.57-11.31C1589.4,163.91,1593.54,168.36,1593.54,174.87Zm-16.9.22c0,4.66,2.69,8.18,6.47,8.18s6.47-3.47,6.47-8.27c0-3.61-1.81-8.18-6.38-8.18S1576.64,171,1576.64,175.09Z"/><path d="M1600.58,175.75c.09,5.24,3.43,7.39,7.3,7.39a14,14,0,0,0,5.9-1.1l.66,2.77a17.2,17.2,0,0,1-7.09,1.33c-6.55,0-10.47-4.32-10.47-10.74s3.79-11.49,10-11.49c7,0,8.8,6.12,8.8,10a15.6,15.6,0,0,1-.13,1.81Zm11.35-2.77c0-2.47-1-6.3-5.37-6.3-3.92,0-5.63,3.61-5.94,6.3Z"/><path d="M1647.13,158.23a8.43,8.43,0,0,0-4.31-1.14c-4.09,0-5.32,2.86-5.32,6.25v1.06h12.4v21.29H1646V167.34h-8.49v18.35h-3.87V167.34h-9v18.35h-3.83V167.34h-3V164.4h3v-.8a9.64,9.64,0,0,1,2.55-7.08,7.34,7.34,0,0,1,5.46-2.07,9.22,9.22,0,0,1,3.74.92l-1.06,2.86a6,6,0,0,0-2.68-.74,3.61,3.61,0,0,0-2.77,1.14c-1.06,1.14-1.41,3.08-1.41,4.93v.84h9v-1.15c0-5.63,3.34-9.28,9.33-9.28a10.45,10.45,0,0,1,5.28,1.36Z"/><path d="M1671.51,184.9a14.26,14.26,0,0,1-6.12,1.24c-6.43,0-10.61-4.36-10.61-10.87s4.49-11.31,11.44-11.31a12.89,12.89,0,0,1,5.37,1.1l-.88,3a8.93,8.93,0,0,0-4.49-1c-4.88,0-7.52,3.61-7.52,8.05,0,4.93,3.17,8,7.39,8a11.11,11.11,0,0,0,4.76-1.05Z"/><path d="M1680.35,158.41a2.4,2.4,0,0,1-4.8,0A2.36,2.36,0,0,1,1678,156,2.3,2.3,0,0,1,1680.35,158.41ZM1676,185.69V164.4h3.87v21.29Z"/><path d="M1688.49,175.75c.09,5.24,3.43,7.39,7.3,7.39a13.93,13.93,0,0,0,5.9-1.1l.66,2.77a17.16,17.16,0,0,1-7.09,1.33c-6.55,0-10.47-4.32-10.47-10.74s3.79-11.49,10-11.49c7,0,8.8,6.12,8.8,10a15.6,15.6,0,0,1-.13,1.81Zm11.35-2.77c.05-2.47-1-6.3-5.37-6.3-3.91,0-5.63,3.61-5.94,6.3Z"/><path d="M1708.38,170.16c0-2.2-.05-4-.18-5.76h3.43l.22,3.52h.09a7.83,7.83,0,0,1,7-4c3,0,7.53,1.76,7.53,9.07v12.71h-3.88V173.42c0-3.44-1.27-6.3-4.92-6.3a5.51,5.51,0,0,0-5.2,4,5.81,5.81,0,0,0-.26,1.81v12.8h-3.87Z"/><path d="M1737.28,158.28v6.12h5.55v2.94h-5.55v11.49c0,2.64.75,4.14,2.91,4.14a8.6,8.6,0,0,0,2.24-.27l.18,2.91a9.67,9.67,0,0,1-3.43.53,5.37,5.37,0,0,1-4.18-1.63c-1.11-1.15-1.5-3-1.5-5.55V167.34h-3.3V164.4h3.3v-5.11Z"/><path d="M1746.65,181.73a10.16,10.16,0,0,0,5.11,1.54c2.82,0,4.14-1.4,4.14-3.16s-1.1-2.86-4-3.92c-3.83-1.36-5.64-3.48-5.64-6,0-3.43,2.78-6.25,7.35-6.25a10.68,10.68,0,0,1,5.24,1.32l-1,2.82a8.3,8.3,0,0,0-4.36-1.23c-2.28,0-3.56,1.32-3.56,2.9,0,1.76,1.28,2.55,4,3.61,3.69,1.41,5.59,3.26,5.59,6.42,0,3.74-2.91,6.39-8,6.39a12.12,12.12,0,0,1-6-1.46Z"/></g><circle class="cls-5" cx="923.76" cy="171.73" r="21"/><line class="cls-2" x1="923.76" y1="150.73" x2="923.76" y2="192.73"/><line class="cls-2" x1="901.76" y1="171.73" x2="943.76" y2="171.73"/><line class="cls-2" x1="959.76" y1="172.32" x2="957.4" y2="172.32"/><polygon points="960.38 162.15 942.76 172.32 960.38 182.49 960.38 162.15"/><line class="cls-2" x1="923.76" y1="134.73" x2="923.76" y2="137.09"/><polygon points="913.59 134.11 923.76 151.73 933.93 134.11 913.59 134.11"/><line class="cls-2" x1="500.49" y1="281.95" x2="621.49" y2="281.95"/><line class="cls-2" x1="540.49" y1="281.95" x2="540.49" y2="170.95"/><line class="cls-2" x1="540.49" y1="172.95" x2="625.49" y2="172.95"/><circle class="cls-5" cx="540.4" cy="281.36" r="21"/><line class="cls-2" x1="540.4" y1="260.36" x2="540.4" y2="302.36"/><line class="cls-2" x1="518.4" y1="281.36" x2="560.4" y2="281.36"/><line class="cls-2" x1="576.4" y1="281.95" x2="574.04" y2="281.95"/><polygon points="577.02 271.77 559.4 281.95 577.02 292.12 577.02 271.77"/><line class="cls-2" x1="540.4" y1="244.36" x2="540.4" y2="246.72"/><polygon points="530.23 243.74 540.4 261.36 550.57 243.74 530.23 243.74"/><line class="cls-2" x1="97.4" y1="389.95" x2="233.49" y2="389.95"/><polygon points="100.38 400.12 82.76 389.95 100.38 379.78 100.38 400.12"/><line class="cls-2" x1="152.49" y1="389.95" x2="152.49" y2="278.95"/><line class="cls-2" x1="152.49" y1="280.95" x2="235.76" y2="280.95"/><circle class="cls-5" cx="152.4" cy="389.36" r="21"/><line class="cls-2" x1="152.4" y1="368.36" x2="152.4" y2="410.36"/><line class="cls-2" x1="130.4" y1="389.36" x2="172.4" y2="389.36"/><line class="cls-2" x1="188.4" y1="389.95" x2="186.04" y2="389.95"/><polygon points="189.02 379.77 171.4 389.95 189.02 400.12 189.02 379.77"/><line class="cls-2" x1="152.4" y1="352.36" x2="152.4" y2="354.72"/><polygon points="142.23 351.74 152.4 369.36 162.57 351.74 142.23 351.74"/><path class="cls-3" d="M505.81,168.21"/><g class="cls-4"><path d="M267.57,272.91c-.09,1.54-.18,3.25-.18,5.85v12.37c0,4.88-1,7.87-3,9.72s-5.07,2.55-7.75,2.55a13.66,13.66,0,0,1-7.08-1.76l1-2.95a11.92,11.92,0,0,0,6.25,1.68c4,0,6.87-2.07,6.87-7.44v-2.38h-.09a7.62,7.62,0,0,1-6.78,3.57c-5.28,0-9.06-4.49-9.06-10.39,0-7.21,4.71-11.31,9.59-11.31a7.1,7.1,0,0,1,6.65,3.7H264l.18-3.21Zm-4,8.4a5.41,5.41,0,0,0-.22-1.76,5.57,5.57,0,0,0-5.41-4.09c-3.7,0-6.34,3.12-6.34,8.05,0,4.18,2.12,7.66,6.3,7.66a5.68,5.68,0,0,0,5.37-4,6.74,6.74,0,0,0,.3-2.07Z"/><path d="M282.22,263.67c-3.21,4.31-5.55,10-5.55,18a29.61,29.61,0,0,0,5.55,17.87h-3a28.45,28.45,0,0,1-5.76-17.87,29,29,0,0,1,5.76-18Z"/><path d="M286.31,278.67c0-2.2-.05-4-.18-5.76h3.43l.23,3.52h.08a7.83,7.83,0,0,1,7-4c2.95,0,7.53,1.76,7.53,9.07v12.72h-3.87V281.93c0-3.43-1.28-6.29-4.93-6.29a5.5,5.5,0,0,0-5.19,4,5.41,5.41,0,0,0-.27,1.8v12.81h-3.87Z"/><path d="M308.4,299.53a29.83,29.83,0,0,0,5.54-18,29.21,29.21,0,0,0-5.54-17.86h3c2.82,3.6,5.76,9.24,5.76,17.91a28.54,28.54,0,0,1-5.76,17.95Z"/><path d="M322.3,276.43a2.62,2.62,0,1,1,5.24,0,2.62,2.62,0,1,1-5.24,0Zm0,15.53a2.62,2.62,0,1,1,5.24,0,2.62,2.62,0,1,1-5.24,0Z"/></g><polyline class="cls-2" points="247.62 269.35 258.12 258.85 268.62 269.35"/><g class="cls-4"><path d="M656.72,165.19c-.09,1.54-.17,3.26-.17,5.85v12.37c0,4.88-1,7.88-3,9.72s-5.06,2.56-7.75,2.56a13.78,13.78,0,0,1-7.08-1.76l1-3a12,12,0,0,0,6.25,1.67c4,0,6.86-2.07,6.86-7.44v-2.37h-.09a7.59,7.59,0,0,1-6.77,3.56c-5.28,0-9.07-4.49-9.07-10.39,0-7.21,4.71-11.3,9.59-11.3a7.08,7.08,0,0,1,6.65,3.69h.09l.17-3.21Zm-4,8.4a5.7,5.7,0,0,0-.22-1.76,5.59,5.59,0,0,0-5.42-4.09c-3.69,0-6.33,3.13-6.33,8,0,4.19,2.11,7.66,6.29,7.66a5.66,5.66,0,0,0,5.37-4,6.75,6.75,0,0,0,.31-2.07Z"/><path d="M671.37,156c-3.21,4.31-5.54,10-5.54,18a29.67,29.67,0,0,0,5.54,17.86h-3A28.37,28.37,0,0,1,662.57,174a29,29,0,0,1,5.77-18Z"/><path d="M675.46,171c0-2.2,0-4-.17-5.76h3.43l.22,3.52H679a7.83,7.83,0,0,1,7-4c2.95,0,7.52,1.76,7.52,9.06v12.72h-3.87V174.21c0-3.43-1.28-6.29-4.93-6.29a5.5,5.5,0,0,0-5.19,4,5.41,5.41,0,0,0-.27,1.8v12.81h-3.87Z"/><path d="M697.55,191.81a29.78,29.78,0,0,0,5.54-18A29.14,29.14,0,0,0,697.55,156h3c2.82,3.61,5.77,9.24,5.77,17.91a28.54,28.54,0,0,1-5.77,17.95Z"/><path d="M711.45,168.71a2.62,2.62,0,1,1,5.24,0,2.62,2.62,0,1,1-5.24,0Zm0,15.53a2.62,2.62,0,1,1,5.24,0,2.62,2.62,0,1,1-5.24,0Z"/></g><polyline class="cls-2" points="636.77 161.63 647.27 151.13 657.77 161.63"/><g class="cls-4"><path d="M1040.72,55.52c-.09,1.54-.17,3.26-.17,5.86V73.74c0,4.89-1,7.88-3,9.73s-5.06,2.55-7.75,2.55a13.78,13.78,0,0,1-7.08-1.76l1-3A12,12,0,0,0,1029.9,83c4,0,6.86-2.07,6.86-7.44V73.17h-.09a7.58,7.58,0,0,1-6.77,3.56c-5.28,0-9.07-4.48-9.07-10.38,0-7.22,4.71-11.31,9.59-11.31a7.08,7.08,0,0,1,6.65,3.69h.09l.17-3.21Zm-4,8.41a5.7,5.7,0,0,0-.22-1.76,5.59,5.59,0,0,0-5.42-4.1c-3.69,0-6.33,3.13-6.33,8.06,0,4.18,2.11,7.66,6.29,7.66a5.66,5.66,0,0,0,5.37-4,6.69,6.69,0,0,0,.31-2.06Z"/><path d="M1055.37,46.28c-3.21,4.31-5.54,10-5.54,18a29.7,29.7,0,0,0,5.54,17.87h-3a28.43,28.43,0,0,1-5.77-17.87,29,29,0,0,1,5.77-18Z"/><path d="M1059.46,61.29c0-2.2,0-4-.17-5.77h3.43l.22,3.52h.09a7.83,7.83,0,0,1,7-4c3,0,7.52,1.76,7.52,9.06V76.82h-3.87V64.54c0-3.43-1.28-6.29-4.93-6.29a5.7,5.7,0,0,0-5.46,5.77v12.8h-3.87Z"/><path d="M1081.55,82.15a29.83,29.83,0,0,0,5.54-18,29.17,29.17,0,0,0-5.54-17.87h3c2.82,3.61,5.77,9.24,5.77,17.91a28.55,28.55,0,0,1-5.77,18Z"/><path d="M1095.45,59a2.62,2.62,0,1,1,5.24,0,2.62,2.62,0,1,1-5.24,0Zm0,15.54a2.62,2.62,0,1,1,5.24,0,2.62,2.62,0,1,1-5.24,0Z"/></g><polyline class="cls-2" points="1020.77 51.97 1031.27 41.47 1041.77 51.97"/><g class="cls-4"><path d="M250.35,370.45h3.87v13.29h.09a7.2,7.2,0,0,1,2.77-2.73,8,8,0,0,1,4-1.1c2.86,0,7.44,1.76,7.44,9.11V401.7h-3.87V389.46c0-3.43-1.28-6.33-4.93-6.33a5.56,5.56,0,0,0-5.19,3.87,4.69,4.69,0,0,0-.27,1.85V401.7h-3.87Z"/><path d="M283.17,371.16c-3.21,4.31-5.54,10-5.54,18A29.67,29.67,0,0,0,283.17,407h-3a28.43,28.43,0,0,1-5.77-17.86,29.08,29.08,0,0,1,5.77-18Z"/><path d="M287.26,386.16c0-2.2,0-4-.17-5.76h3.43l.22,3.52h.09a7.83,7.83,0,0,1,7-4c2.95,0,7.53,1.76,7.53,9.07V401.7h-3.88V389.42c0-3.43-1.27-6.29-4.93-6.29a5.5,5.5,0,0,0-5.19,4,5.7,5.7,0,0,0-.26,1.8V401.7h-3.88Z"/><path d="M309.35,407a29.74,29.74,0,0,0,5.55-18,29.14,29.14,0,0,0-5.55-17.86h3c2.82,3.61,5.77,9.24,5.77,17.91A28.54,28.54,0,0,1,312.34,407Z"/><path d="M323.26,383.92a2.62,2.62,0,1,1,5.23,0,2.62,2.62,0,1,1-5.23,0Zm0,15.53a2.62,2.62,0,1,1,5.23,0,2.62,2.62,0,1,1-5.23,0Z"/></g><polyline class="cls-2" points="244.7 369.89 252.2 362.39 259.7 369.89"/><g class="cls-4"><path d="M1020.5,154.84h3.88v13.29h.08a7.23,7.23,0,0,1,2.78-2.73,7.93,7.93,0,0,1,4-1.1c2.86,0,7.43,1.76,7.43,9.11v12.67h-3.87V173.85c0-3.43-1.28-6.34-4.93-6.34a5.56,5.56,0,0,0-5.19,3.87,4.7,4.7,0,0,0-.26,1.85v12.85h-3.88Z"/><path d="M1053.33,155.54c-3.21,4.31-5.55,10-5.55,18a29.64,29.64,0,0,0,5.55,17.87h-3a28.49,28.49,0,0,1-5.76-17.87,29,29,0,0,1,5.76-18Z"/><path d="M1057.42,170.55c0-2.2-.05-4-.18-5.77h3.43l.22,3.52h.09a7.84,7.84,0,0,1,7-4c3,0,7.53,1.76,7.53,9.06v12.72h-3.87V173.8c0-3.43-1.28-6.29-4.93-6.29a5.52,5.52,0,0,0-5.2,4,5.81,5.81,0,0,0-.26,1.81v12.8h-3.87Z"/><path d="M1079.5,191.41a29.76,29.76,0,0,0,5.55-18,29.17,29.17,0,0,0-5.55-17.87h3c2.81,3.61,5.76,9.24,5.76,17.91a28.61,28.61,0,0,1-5.76,18Z"/><path d="M1093.41,168.3a2.62,2.62,0,1,1,5.24,0,2.62,2.62,0,1,1-5.24,0Zm0,15.54a2.62,2.62,0,1,1,5.24,0,2.62,2.62,0,1,1-5.24,0Z"/></g><polyline class="cls-2" points="1014.85 154.27 1022.35 146.77 1029.85 154.27"/><g class="cls-4"><path d="M638.5,265.84h3.88v13.29h.08a7.23,7.23,0,0,1,2.78-2.73,7.93,7.93,0,0,1,4-1.1c2.86,0,7.43,1.76,7.43,9.11v12.67h-3.87V284.85c0-3.43-1.28-6.34-4.93-6.34a5.56,5.56,0,0,0-5.19,3.87,4.7,4.7,0,0,0-.26,1.85v12.85H638.5Z"/><path d="M671.33,266.54c-3.21,4.31-5.55,10-5.55,18a29.64,29.64,0,0,0,5.55,17.87h-3a28.49,28.49,0,0,1-5.76-17.87,29,29,0,0,1,5.76-18Z"/><path d="M675.42,281.55c0-2.2,0-4-.18-5.77h3.43l.23,3.52H679a7.84,7.84,0,0,1,7-4c3,0,7.53,1.76,7.53,9.06v12.72h-3.87V284.8c0-3.43-1.28-6.29-4.93-6.29a5.7,5.7,0,0,0-5.46,5.77v12.8h-3.87Z"/><path d="M697.51,302.41a29.83,29.83,0,0,0,5.54-18,29.24,29.24,0,0,0-5.54-17.87h3c2.81,3.61,5.76,9.24,5.76,17.91a28.61,28.61,0,0,1-5.76,18Z"/><path d="M711.41,279.3a2.62,2.62,0,1,1,5.24,0,2.62,2.62,0,1,1-5.24,0Zm0,15.54a2.62,2.62,0,1,1,5.24,0,2.62,2.62,0,1,1-5.24,0Z"/></g><polyline class="cls-2" points="632.85 265.27 640.35 257.77 647.85 265.27"/><g class="cls-4"><path d="M60.61,100.77c-.09,1.54-.18,3.25-.18,5.85V119c0,4.88-1,7.87-3,9.72s-5.06,2.55-7.74,2.55a13.72,13.72,0,0,1-7.09-1.76l1-3a11.92,11.92,0,0,0,6.25,1.68c4,0,6.87-2.07,6.87-7.44v-2.38h-.09A7.62,7.62,0,0,1,49.78,122c-5.28,0-9.06-4.49-9.06-10.39,0-7.21,4.7-11.31,9.59-11.31A7.07,7.07,0,0,1,57,104H57l.18-3.21Zm-4,8.4a5.41,5.41,0,0,0-.22-1.76A5.57,5.57,0,0,0,51,103.32c-3.7,0-6.34,3.12-6.34,8.05,0,4.18,2.12,7.66,6.3,7.66a5.66,5.66,0,0,0,5.36-4A6.75,6.75,0,0,0,56.6,113Z"/><path d="M75.26,91.53c-3.22,4.31-5.55,10-5.55,18a29.61,29.61,0,0,0,5.55,17.87h-3a28.45,28.45,0,0,1-5.76-17.87,29,29,0,0,1,5.76-18Z"/><path d="M79.35,106.53c0-2.2,0-4-.18-5.76H82.6l.22,3.52h.09a7.83,7.83,0,0,1,7-4c3,0,7.53,1.76,7.53,9.07v12.72H93.61V109.79c0-3.43-1.28-6.29-4.93-6.29a5.5,5.5,0,0,0-5.2,4,5.7,5.7,0,0,0-.26,1.8v12.81H79.35Z"/><path d="M101.44,127.39a29.83,29.83,0,0,0,5.54-18,29.21,29.21,0,0,0-5.54-17.86h3c2.81,3.6,5.76,9.24,5.76,17.91a28.6,28.6,0,0,1-5.76,18Z"/><path d="M115.34,104.29a2.62,2.62,0,1,1,5.24,0,2.62,2.62,0,1,1-5.24,0Zm0,15.53a2.62,2.62,0,1,1,5.24,0,2.62,2.62,0,1,1-5.24,0Z"/></g><polyline class="cls-2" points="40.65 97.21 51.15 86.71 61.65 97.21"/><g class="cls-4"><path d="M271.77,91.8h3.87v13.29h.09a7.27,7.27,0,0,1,2.77-2.73,8,8,0,0,1,4-1.1c2.86,0,7.43,1.76,7.43,9.11V123H286V110.81c0-3.43-1.28-6.34-4.93-6.34a5.56,5.56,0,0,0-5.19,3.87,4.69,4.69,0,0,0-.27,1.85V123h-3.87Z"/><path d="M304.6,92.5c-3.22,4.31-5.55,10-5.55,18a29.64,29.64,0,0,0,5.55,17.87h-3a28.49,28.49,0,0,1-5.76-17.87,29,29,0,0,1,5.76-18Z"/><path d="M308.69,107.51c0-2.2-.05-4-.18-5.77h3.43l.22,3.52h.09a7.84,7.84,0,0,1,7-4c2.95,0,7.53,1.76,7.53,9.06V123H323V110.76c0-3.43-1.28-6.29-4.93-6.29a5.51,5.51,0,0,0-5.2,4,5.81,5.81,0,0,0-.26,1.81V123h-3.87Z"/><path d="M330.77,128.37a29.76,29.76,0,0,0,5.55-18,29.17,29.17,0,0,0-5.55-17.87h3c2.81,3.61,5.76,9.24,5.76,17.91a28.61,28.61,0,0,1-5.76,18Z"/><path d="M344.68,105.26a2.62,2.62,0,1,1,5.24,0,2.62,2.62,0,1,1-5.24,0Zm0,15.54a2.62,2.62,0,1,1,5.24,0,2.62,2.62,0,1,1-5.24,0Z"/></g><polyline class="cls-2" points="266.12 91.23 273.62 83.73 281.12 91.23"/></g></svg>