<?xml version="1.0" encoding="utf-8"?>
<!-- Generator: Adobe Illustrator 23.0.6, SVG Export Plug-In . SVG Version: 6.00 Build 0)  -->
<svg version="1.1" xmlns="http://www.w3.org/2000/svg" xmlns:xlink="http://www.w3.org/1999/xlink" x="0px" y="0px"
	 viewBox="0 0 1773 430" style="enable-background:new 0 0 1773 430;" xml:space="preserve">
<style type="text/css">
	.st0{fill:#FFFFFF;}
	.st1{fill:none;stroke:#000000;stroke-width:4;stroke-miterlimit:10;}
	.st2{fill:none;stroke:#000000;stroke-width:3;stroke-miterlimit:10;}
</style>
<g id="Layer_3">
	<rect class="st0" width="1731" height="430"/>
</g>
<g id="Layer_2">
	<g>
		<path d="M43.02,377.33l3.04,4.58c0.79,1.19,1.45,2.29,2.16,3.48h0.13c0.7-1.28,1.41-2.38,2.11-3.52l2.99-4.53h4.18l-7.26,10.3
			l7.48,11h-4.4l-3.12-4.8c-0.84-1.23-1.54-2.42-2.29-3.7h-0.09c-0.7,1.28-1.45,2.42-2.24,3.7l-3.08,4.8h-4.27l7.57-10.87
			l-7.22-10.43H43.02z"/>
		<path d="M69.99,368.08c-3.21,4.31-5.54,10.03-5.54,18c0,7.83,2.42,13.47,5.54,17.87h-3.04c-2.77-3.65-5.76-9.29-5.76-17.87
			c0.04-8.67,2.99-14.3,5.76-18H69.99z"/>
		<path d="M74.08,383.09c0-2.2-0.04-4-0.18-5.76h3.43l0.22,3.52h0.09c1.06-2.02,3.52-4,7.04-4c2.95,0,7.53,1.76,7.53,9.07v12.72
			h-3.87v-12.28c0-3.43-1.28-6.29-4.93-6.29c-2.55,0-4.53,1.8-5.19,3.96c-0.18,0.48-0.26,1.14-0.26,1.8v12.81h-3.87V383.09z"/>
		<path d="M96.17,403.95c3.12-4.36,5.54-10.08,5.54-18c0-7.88-2.38-13.51-5.54-17.87h2.99c2.82,3.61,5.76,9.24,5.76,17.91
			c0,8.63-2.95,14.21-5.76,17.95H96.17z"/>
	</g>
	<g>
		<g>
			<line class="st1" x1="110" y1="385" x2="220.36" y2="385"/>
			<g>
				<polygon points="217.38,395.17 235,385 217.38,374.83 				"/>
			</g>
		</g>
	</g>
	<line class="st1" x1="150" y1="385" x2="150" y2="274"/>
	<g>
		<g>
			<line class="st1" x1="150" y1="276" x2="220.36" y2="276"/>
			<g>
				<polygon points="217.38,286.17 235,276 217.38,265.83 				"/>
			</g>
		</g>
	</g>
	<g>
		<g>
			<line class="st1" x1="341" y1="278" x2="410.36" y2="278"/>
			<g>
				<polygon points="407.38,288.17 425,278 407.38,267.83 				"/>
			</g>
		</g>
	</g>
	<g>
		<g>
			<line class="st1" x1="341" y1="383" x2="410.36" y2="383"/>
			<g>
				<polygon points="407.38,393.17 425,383 407.38,372.83 				"/>
			</g>
		</g>
	</g>
	<g>
		<g>
			<line class="st1" x1="502" y1="278" x2="608.36" y2="278"/>
			<g>
				<polygon points="605.38,288.17 623,278 605.38,267.83 				"/>
			</g>
		</g>
	</g>
	<line class="st1" x1="542" y1="278" x2="542" y2="167"/>
	<g>
		<g>
			<line class="st1" x1="542" y1="169" x2="612.36" y2="169"/>
			<g>
				<polygon points="609.38,179.17 627,169 609.38,158.83 				"/>
			</g>
		</g>
	</g>
	<g>
		<g>
			<line class="st1" x1="884" y1="168" x2="990.36" y2="168"/>
			<g>
				<polygon points="987.38,178.17 1005,168 987.38,157.83 				"/>
			</g>
		</g>
	</g>
	<line class="st1" x1="924" y1="168" x2="924" y2="57"/>
	<g>
		<g>
			<line class="st1" x1="924" y1="59" x2="994.36" y2="59"/>
			<g>
				<polygon points="991.38,69.17 1009,59 991.38,48.83 				"/>
			</g>
		</g>
	</g>
	<g>
		<g>
			<line class="st1" x1="497" y1="383" x2="566.36" y2="383"/>
			<g>
				<polygon points="563.38,393.17 581,383 563.38,372.83 				"/>
			</g>
		</g>
	</g>
	<g>
		<g>
			<line class="st1" x1="727" y1="276" x2="796.36" y2="276"/>
			<g>
				<polygon points="793.38,286.17 811,276 793.38,265.83 				"/>
			</g>
		</g>
	</g>
	<g>
		<g>
			<line class="st1" x1="729" y1="169" x2="798.36" y2="169"/>
			<g>
				<polygon points="795.38,179.17 813,169 795.38,158.83 				"/>
			</g>
		</g>
	</g>
	<g>
		<g>
			<line class="st1" x1="883" y1="276" x2="952.36" y2="276"/>
			<g>
				<polygon points="949.38,286.17 967,276 949.38,265.83 				"/>
			</g>
		</g>
	</g>
	<g>
		<g>
			<line class="st1" x1="1112" y1="167" x2="1181.36" y2="167"/>
			<g>
				<polygon points="1178.38,177.17 1196,167 1178.38,156.83 				"/>
			</g>
		</g>
	</g>
	<g>
		<g>
			<line class="st1" x1="1112" y1="60" x2="1181.36" y2="60"/>
			<g>
				<polygon points="1178.38,70.17 1196,60 1178.38,49.83 				"/>
			</g>
		</g>
	</g>
	<g>
		<g>
			<line class="st1" x1="1268" y1="167" x2="1337.36" y2="167"/>
			<g>
				<polygon points="1334.38,177.17 1352,167 1334.38,156.83 				"/>
			</g>
		</g>
	</g>
	<line class="st1" x1="1269" y1="60" x2="1321" y2="60"/>
	<line class="st1" x1="1328" y1="60" x2="1335" y2="60"/>
	<line class="st1" x1="1342" y1="60" x2="1349" y2="60"/>
	<line class="st1" x1="1356" y1="60" x2="1363" y2="60"/>
	<rect x="235" y="244" class="st1" width="105" height="66"/>
	<rect x="235" y="350" class="st1" width="105" height="66"/>
	<g>
		<path d="M273.26,269.24c-0.09,1.54-0.18,3.26-0.18,5.85v12.37c0,4.88-0.97,7.88-3.04,9.73c-2.07,1.94-5.06,2.55-7.75,2.55
			c-2.55,0-5.37-0.62-7.08-1.76l0.97-2.95c1.41,0.88,3.61,1.67,6.25,1.67c3.96,0,6.87-2.07,6.87-7.44v-2.38h-0.09
			c-1.19,1.98-3.48,3.56-6.78,3.56c-5.28,0-9.06-4.49-9.06-10.39c0-7.22,4.71-11.31,9.59-11.31c3.7,0,5.72,1.94,6.65,3.7h0.09
			l0.18-3.21H273.26z M269.25,277.64c0-0.66-0.04-1.23-0.22-1.76c-0.7-2.24-2.6-4.09-5.41-4.09c-3.7,0-6.34,3.12-6.34,8.05
			c0,4.18,2.11,7.66,6.29,7.66c2.38,0,4.53-1.5,5.37-3.96c0.22-0.66,0.31-1.41,0.31-2.07V277.64z"/>
		<path d="M287.91,260c-3.21,4.31-5.54,10.03-5.54,18c0,7.83,2.42,13.47,5.54,17.87h-3.04c-2.77-3.65-5.76-9.29-5.76-17.87
			c0.04-8.67,2.99-14.3,5.76-18H287.91z"/>
		<path d="M292,275c0-2.2-0.04-4-0.18-5.77h3.43l0.22,3.52h0.09c1.06-2.02,3.52-4,7.04-4c2.95,0,7.53,1.76,7.53,9.07v12.72h-3.87
			v-12.28c0-3.43-1.28-6.29-4.93-6.29c-2.55,0-4.53,1.8-5.19,3.96c-0.18,0.48-0.26,1.14-0.26,1.8v12.81H292V275z"/>
		<path d="M314.08,295.86c3.12-4.36,5.54-10.08,5.54-18c0-7.88-2.38-13.51-5.54-17.87h2.99c2.82,3.61,5.76,9.24,5.76,17.91
			c0,8.63-2.95,14.21-5.76,17.95H314.08z"/>
	</g>
	<g>
		<path d="M255.25,365.13h3.87v13.29h0.09c0.62-1.1,1.58-2.07,2.77-2.73c1.14-0.66,2.51-1.1,3.96-1.1c2.86,0,7.44,1.76,7.44,9.11
			v12.67h-3.87v-12.23c0-3.43-1.28-6.34-4.93-6.34c-2.51,0-4.49,1.76-5.19,3.87c-0.22,0.53-0.26,1.1-0.26,1.85v12.85h-3.87V365.13z"
			/>
		<path d="M288.07,365.83c-3.21,4.31-5.54,10.03-5.54,18c0,7.83,2.42,13.47,5.54,17.87h-3.04c-2.77-3.65-5.76-9.29-5.76-17.87
			c0.04-8.67,2.99-14.3,5.76-18H288.07z"/>
		<path d="M292.16,380.84c0-2.2-0.04-4-0.18-5.77h3.43l0.22,3.52h0.09c1.06-2.02,3.52-4,7.04-4c2.95,0,7.53,1.76,7.53,9.07v12.72
			h-3.87V384.1c0-3.43-1.28-6.29-4.93-6.29c-2.55,0-4.53,1.8-5.19,3.96c-0.18,0.48-0.26,1.14-0.26,1.8v12.81h-3.87V380.84z"/>
		<path d="M314.25,401.7c3.12-4.36,5.54-10.08,5.54-18c0-7.88-2.38-13.51-5.54-17.87h2.99c2.82,3.61,5.76,9.24,5.76,17.91
			c0,8.63-2.95,14.21-5.76,17.95H314.25z"/>
	</g>
	<rect x="625" y="136" class="st1" width="105" height="66"/>
	<g>
		<path d="M663.26,161.24c-0.09,1.54-0.18,3.26-0.18,5.85v12.37c0,4.88-0.97,7.88-3.04,9.73c-2.07,1.94-5.06,2.55-7.75,2.55
			c-2.55,0-5.37-0.62-7.08-1.76l0.97-2.95c1.41,0.88,3.61,1.67,6.25,1.67c3.96,0,6.87-2.07,6.87-7.44v-2.38h-0.09
			c-1.19,1.98-3.48,3.56-6.78,3.56c-5.28,0-9.06-4.49-9.06-10.39c0-7.22,4.71-11.31,9.59-11.31c3.7,0,5.72,1.94,6.65,3.7h0.09
			l0.18-3.21H663.26z M659.25,169.64c0-0.66-0.04-1.23-0.22-1.76c-0.7-2.24-2.6-4.09-5.41-4.09c-3.7,0-6.34,3.12-6.34,8.05
			c0,4.18,2.11,7.66,6.29,7.66c2.38,0,4.53-1.5,5.37-3.96c0.22-0.66,0.31-1.41,0.31-2.07V169.64z"/>
		<path d="M677.91,152c-3.21,4.31-5.54,10.03-5.54,18c0,7.83,2.42,13.47,5.54,17.87h-3.04c-2.77-3.65-5.76-9.29-5.76-17.87
			c0.04-8.67,2.99-14.3,5.76-18H677.91z"/>
		<path d="M682,167c0-2.2-0.04-4-0.18-5.77h3.43l0.22,3.52h0.09c1.06-2.02,3.52-4,7.04-4c2.95,0,7.53,1.76,7.53,9.07v12.72h-3.87
			v-12.28c0-3.43-1.28-6.29-4.93-6.29c-2.55,0-4.53,1.8-5.19,3.96c-0.18,0.48-0.26,1.14-0.26,1.8v12.81H682V167z"/>
		<path d="M704.08,187.86c3.12-4.36,5.54-10.08,5.54-18c0-7.88-2.38-13.51-5.54-17.87h2.99c2.82,3.61,5.76,9.24,5.76,17.91
			c0,8.63-2.95,14.21-5.76,17.95H704.08z"/>
	</g>
	<rect x="1008" y="27" class="st1" width="105" height="66"/>
	<g>
		<path d="M1046.26,52.24c-0.09,1.54-0.18,3.26-0.18,5.85v12.37c0,4.88-0.97,7.88-3.04,9.73c-2.07,1.94-5.06,2.55-7.75,2.55
			c-2.55,0-5.37-0.62-7.08-1.76l0.97-2.95c1.41,0.88,3.61,1.67,6.25,1.67c3.96,0,6.87-2.07,6.87-7.44v-2.38h-0.09
			c-1.19,1.98-3.48,3.56-6.78,3.56c-5.28,0-9.06-4.49-9.06-10.39c0-7.22,4.71-11.31,9.59-11.31c3.7,0,5.72,1.94,6.65,3.7h0.09
			l0.18-3.21H1046.26z M1042.25,60.64c0-0.66-0.04-1.23-0.22-1.76c-0.71-2.24-2.6-4.09-5.41-4.09c-3.7,0-6.34,3.12-6.34,8.05
			c0,4.18,2.11,7.66,6.29,7.66c2.38,0,4.53-1.5,5.37-3.96c0.22-0.66,0.31-1.41,0.31-2.07V60.64z"/>
		<path d="M1060.91,43c-3.21,4.31-5.54,10.03-5.54,18c0,7.83,2.42,13.47,5.54,17.87h-3.04c-2.77-3.65-5.76-9.29-5.76-17.87
			c0.04-8.67,2.99-14.3,5.76-18H1060.91z"/>
		<path d="M1065,58c0-2.2-0.04-4-0.18-5.77h3.43l0.22,3.52h0.09c1.06-2.02,3.52-4,7.04-4c2.95,0,7.53,1.76,7.53,9.07v12.72h-3.87
			V61.26c0-3.43-1.28-6.29-4.93-6.29c-2.55,0-4.53,1.8-5.19,3.96c-0.18,0.48-0.26,1.14-0.26,1.8v12.81H1065V58z"/>
		<path d="M1087.08,78.86c3.13-4.36,5.54-10.08,5.54-18c0-7.88-2.38-13.51-5.54-17.87h2.99c2.82,3.61,5.77,9.24,5.77,17.91
			c0,8.63-2.95,14.21-5.77,17.95H1087.08z"/>
	</g>
	<rect x="624" y="245" class="st1" width="105" height="66"/>
	<g>
		<path d="M644.25,260.13h3.87v13.29h0.09c0.62-1.1,1.58-2.07,2.77-2.73c1.14-0.66,2.51-1.1,3.96-1.1c2.86,0,7.44,1.76,7.44,9.11
			v12.67h-3.87v-12.23c0-3.43-1.28-6.34-4.93-6.34c-2.51,0-4.49,1.76-5.19,3.87c-0.22,0.53-0.26,1.1-0.26,1.85v12.85h-3.87V260.13z"
			/>
		<path d="M677.07,260.83c-3.21,4.31-5.54,10.03-5.54,18c0,7.83,2.42,13.47,5.54,17.87h-3.04c-2.77-3.65-5.76-9.29-5.76-17.87
			c0.04-8.67,2.99-14.3,5.76-18H677.07z"/>
		<path d="M681.16,275.84c0-2.2-0.04-4-0.18-5.77h3.43l0.22,3.52h0.09c1.06-2.02,3.52-4,7.04-4c2.95,0,7.53,1.76,7.53,9.07v12.72
			h-3.87V279.1c0-3.43-1.28-6.29-4.93-6.29c-2.55,0-4.53,1.8-5.19,3.96c-0.18,0.48-0.26,1.14-0.26,1.8v12.81h-3.87V275.84z"/>
		<path d="M703.25,296.7c3.12-4.36,5.54-10.08,5.54-18c0-7.88-2.38-13.51-5.54-17.87h2.99c2.82,3.61,5.76,9.24,5.76,17.91
			c0,8.63-2.95,14.21-5.76,17.95H703.25z"/>
	</g>
	<rect x="1006" y="134" class="st1" width="105" height="66"/>
	<g>
		<path d="M1026.25,149.13h3.87v13.29h0.09c0.62-1.1,1.58-2.07,2.77-2.73c1.14-0.66,2.51-1.1,3.96-1.1c2.86,0,7.44,1.76,7.44,9.11
			v12.67h-3.87v-12.23c0-3.43-1.28-6.34-4.93-6.34c-2.51,0-4.49,1.76-5.19,3.87c-0.22,0.53-0.26,1.1-0.26,1.85v12.85h-3.87V149.13z"
			/>
		<path d="M1059.07,149.83c-3.21,4.31-5.54,10.03-5.54,18c0,7.83,2.42,13.47,5.54,17.87h-3.04c-2.77-3.65-5.76-9.29-5.76-17.87
			c0.04-8.67,2.99-14.3,5.76-18H1059.07z"/>
		<path d="M1063.16,164.84c0-2.2-0.04-4-0.18-5.77h3.43l0.22,3.52h0.09c1.06-2.02,3.52-4,7.04-4c2.95,0,7.53,1.76,7.53,9.07v12.72
			h-3.87V168.1c0-3.43-1.28-6.29-4.93-6.29c-2.55,0-4.53,1.8-5.19,3.96c-0.18,0.48-0.26,1.14-0.26,1.8v12.81h-3.87V164.84z"/>
		<path d="M1085.25,185.7c3.12-4.36,5.54-10.08,5.54-18c0-7.88-2.38-13.51-5.54-17.87h2.99c2.82,3.61,5.76,9.24,5.76,17.91
			c0,8.63-2.95,14.21-5.76,17.95H1085.25z"/>
	</g>
	<circle class="st1" cx="462.5" cy="278.5" r="37.5"/>
	<g>
		<path d="M465.13,291.62v-2.38l3.04-2.95c7.31-6.95,10.61-10.65,10.65-14.96c0-2.9-1.41-5.59-5.68-5.59c-2.6,0-4.75,1.32-6.07,2.42
			l-1.23-2.73c1.98-1.67,4.8-2.9,8.1-2.9c6.16,0,8.76,4.22,8.76,8.32c0,5.28-3.83,9.55-9.86,15.36l-2.29,2.11v0.09h12.85v3.21
			H465.13z"/>
	</g>
	<g>
		<g>
			<line class="st1" x1="449" y1="263" x2="449" y2="288.83"/>
			<g>
				<polygon points="437.06,279.16 439.2,277.17 449,287.71 458.8,277.17 460.94,279.16 449,292 				"/>
			</g>
		</g>
	</g>
	<circle class="st1" cx="461.5" cy="383.5" r="37.5"/>
	<g>
		<path d="M464.13,396.62v-2.38l3.04-2.95c7.31-6.95,10.61-10.65,10.65-14.96c0-2.9-1.41-5.59-5.68-5.59c-2.6,0-4.75,1.32-6.07,2.42
			l-1.23-2.73c1.98-1.67,4.8-2.9,8.1-2.9c6.16,0,8.76,4.23,8.76,8.32c0,5.28-3.83,9.55-9.86,15.36l-2.29,2.11v0.09h12.85v3.21
			H464.13z"/>
	</g>
	<g>
		<g>
			<line class="st1" x1="448" y1="368" x2="448" y2="393.83"/>
			<g>
				<polygon points="436.06,384.16 438.2,382.17 448,392.71 457.8,382.17 459.94,384.16 448,397 				"/>
			</g>
		</g>
	</g>
	<circle class="st1" cx="846.5" cy="275.5" r="37.5"/>
	<g>
		<path d="M849.13,288.62v-2.38l3.04-2.95c7.31-6.95,10.61-10.65,10.65-14.96c0-2.9-1.41-5.59-5.68-5.59c-2.6,0-4.75,1.32-6.07,2.42
			l-1.23-2.73c1.98-1.67,4.8-2.9,8.1-2.9c6.16,0,8.76,4.22,8.76,8.32c0,5.28-3.83,9.55-9.86,15.36l-2.29,2.11v0.09h12.85v3.21
			H849.13z"/>
	</g>
	<g>
		<g>
			<line class="st1" x1="832" y1="260" x2="832" y2="285.83"/>
			<g>
				<polygon points="820.06,276.16 822.2,274.17 832,284.71 841.8,274.17 843.94,276.16 832,289 				"/>
			</g>
		</g>
	</g>
	<circle class="st1" cx="848.5" cy="168.5" r="37.5"/>
	<g>
		<path d="M851.13,181.62v-2.38l3.04-2.95c7.31-6.95,10.61-10.65,10.65-14.96c0-2.9-1.41-5.59-5.68-5.59c-2.6,0-4.75,1.32-6.07,2.42
			l-1.23-2.73c1.98-1.67,4.8-2.9,8.1-2.9c6.16,0,8.76,4.22,8.76,8.32c0,5.28-3.83,9.55-9.86,15.36l-2.29,2.11v0.09h12.85v3.21
			H851.13z"/>
	</g>
	<g>
		<g>
			<line class="st1" x1="835" y1="153" x2="835" y2="178.83"/>
			<g>
				<polygon points="823.06,169.16 825.2,167.17 835,177.71 844.8,167.17 846.94,169.16 835,182 				"/>
			</g>
		</g>
	</g>
	<circle class="st1" cx="1232.32" cy="167.49" r="37.5"/>
	<g>
		<path d="M1234.95,180.6v-2.38l3.04-2.95c7.3-6.95,10.61-10.65,10.65-14.96c0-2.9-1.41-5.59-5.68-5.59c-2.6,0-4.75,1.32-6.07,2.42
			l-1.23-2.73c1.98-1.67,4.8-2.9,8.1-2.9c6.16,0,8.76,4.22,8.76,8.32c0,5.28-3.83,9.55-9.86,15.36l-2.29,2.11v0.09h12.85v3.21
			H1234.95z"/>
	</g>
	<g>
		<g>
			<line class="st1" x1="1218.82" y1="151.99" x2="1218.82" y2="177.82"/>
			<g>
				<polygon points="1206.87,168.15 1209.01,166.15 1218.81,176.7 1228.62,166.15 1230.76,168.15 1218.81,180.99 				"/>
			</g>
		</g>
	</g>
	<circle class="st1" cx="1232.32" cy="59.49" r="37.5"/>
	<g>
		<path d="M1234.95,72.6v-2.38l3.04-2.95c7.3-6.95,10.61-10.65,10.65-14.96c0-2.9-1.41-5.59-5.68-5.59c-2.6,0-4.75,1.32-6.07,2.42
			l-1.23-2.73c1.98-1.67,4.8-2.9,8.1-2.9c6.16,0,8.76,4.22,8.76,8.32c0,5.28-3.83,9.55-9.86,15.36l-2.29,2.11v0.09h12.85v3.21
			H1234.95z"/>
	</g>
	<g>
		<g>
			<line class="st1" x1="1218.82" y1="43.99" x2="1218.82" y2="69.82"/>
			<g>
				<polygon points="1206.87,60.15 1209.01,58.15 1218.81,68.7 1228.62,58.15 1230.76,60.15 1218.81,72.99 				"/>
			</g>
		</g>
	</g>
	<g>
		<path d="M596.58,366.57h3.83v26.45h12.67v3.21h-16.5V366.57z"/>
		<path d="M618.75,386.29c0.09,5.24,3.43,7.39,7.31,7.39c2.77,0,4.44-0.48,5.9-1.1l0.66,2.77c-1.36,0.62-3.7,1.32-7.08,1.32
			c-6.56,0-10.47-4.31-10.47-10.74s3.78-11.49,9.99-11.49c6.95,0,8.8,6.12,8.8,10.03c0,0.79-0.09,1.41-0.13,1.8H618.75z
			 M630.11,383.51c0.04-2.46-1.01-6.29-5.37-6.29c-3.92,0-5.63,3.61-5.94,6.29H630.11z"/>
		<path d="M640.13,374.93l4.18,11.97c0.7,1.94,1.28,3.7,1.72,5.46h0.13c0.48-1.76,1.1-3.52,1.8-5.46l4.14-11.97h4.05l-8.36,21.3
			h-3.7l-8.1-21.3H640.13z"/>
		<path d="M661.52,386.29c0.09,5.24,3.43,7.39,7.3,7.39c2.77,0,4.44-0.48,5.9-1.1l0.66,2.77c-1.36,0.62-3.7,1.32-7.08,1.32
			c-6.56,0-10.47-4.31-10.47-10.74s3.79-11.49,9.99-11.49c6.95,0,8.8,6.12,8.8,10.03c0,0.79-0.09,1.41-0.13,1.8H661.52z
			 M672.87,383.51c0.04-2.46-1.01-6.29-5.37-6.29c-3.92,0-5.63,3.61-5.94,6.29H672.87z"/>
		<path d="M681.41,364.99h3.87v31.24h-3.87V364.99z"/>
		<path d="M701.25,396.23v-29.66h4.18l9.5,15.01c2.2,3.48,3.92,6.6,5.33,9.64l0.09-0.04c-0.35-3.96-0.44-7.57-0.44-12.19v-12.41
			h3.61v29.66h-3.87l-9.42-15.05c-2.07-3.3-4.05-6.69-5.54-9.9l-0.13,0.04c0.22,3.74,0.31,7.3,0.31,12.23v12.67H701.25z"/>
		<path d="M760.25,395.26c-1.41,0.7-4.22,1.41-7.83,1.41c-8.36,0-14.65-5.28-14.65-15.01c0-9.29,6.29-15.58,15.49-15.58
			c3.7,0,6.03,0.79,7.04,1.32l-0.92,3.13c-1.45-0.71-3.52-1.23-5.99-1.23c-6.95,0-11.57,4.44-11.57,12.23
			c0,7.26,4.18,11.93,11.4,11.93c2.33,0,4.71-0.48,6.25-1.23L760.25,395.26z"/>
		<path d="M783.71,385.41c0,7.88-5.46,11.31-10.61,11.31c-5.76,0-10.21-4.22-10.21-10.96c0-7.13,4.67-11.31,10.56-11.31
			C779.57,374.45,783.71,378.89,783.71,385.41z M766.81,385.63c0,4.67,2.68,8.19,6.47,8.19c3.7,0,6.47-3.48,6.47-8.27
			c0-3.61-1.8-8.19-6.38-8.19C768.79,377.35,766.81,381.58,766.81,385.63z"/>
		<path d="M790.75,386.29c0.09,5.24,3.43,7.39,7.3,7.39c2.77,0,4.44-0.48,5.9-1.1l0.66,2.77c-1.36,0.62-3.7,1.32-7.08,1.32
			c-6.56,0-10.47-4.31-10.47-10.74s3.79-11.49,9.99-11.49c6.95,0,8.8,6.12,8.8,10.03c0,0.79-0.09,1.41-0.13,1.8H790.75z
			 M802.1,383.51c0.04-2.46-1.01-6.29-5.37-6.29c-3.92,0-5.63,3.61-5.94,6.29H802.1z"/>
		<path d="M837.3,368.77c-0.97-0.62-2.55-1.14-4.31-1.14c-4.09,0-5.32,2.86-5.32,6.25v1.06h12.41v21.3h-3.87v-18.35h-8.49v18.35
			h-3.87v-18.35h-8.98v18.35h-3.83v-18.35h-2.99v-2.95h2.99v-0.79c0-2.68,0.7-5.28,2.55-7.08c1.23-1.28,3.08-2.07,5.46-2.07
			c1.45,0,2.95,0.53,3.74,0.92l-1.06,2.86c-0.66-0.35-1.67-0.75-2.68-0.75c-1.23,0-2.11,0.44-2.77,1.14
			c-1.06,1.14-1.41,3.08-1.41,4.93v0.84h8.98v-1.14c0-5.63,3.34-9.29,9.33-9.29c1.94,0,4.14,0.57,5.28,1.36L837.3,368.77z"/>
		<path d="M861.67,395.44c-1.01,0.53-3.26,1.23-6.12,1.23c-6.42,0-10.61-4.36-10.61-10.87c0-6.56,4.49-11.31,11.44-11.31
			c2.29,0,4.31,0.57,5.37,1.1l-0.88,2.99c-0.92-0.53-2.38-1.01-4.49-1.01c-4.88,0-7.53,3.61-7.53,8.05c0,4.93,3.17,7.96,7.39,7.96
			c2.2,0,3.65-0.57,4.75-1.06L861.67,395.44z"/>
		<path d="M870.52,368.95c0.04,1.32-0.92,2.38-2.46,2.38c-1.36,0-2.33-1.06-2.33-2.38c0-1.36,1.01-2.42,2.42-2.42
			C869.59,366.53,870.52,367.58,870.52,368.95z M866.2,396.23v-21.3h3.87v21.3H866.2z"/>
		<path d="M878.66,386.29c0.09,5.24,3.43,7.39,7.3,7.39c2.77,0,4.44-0.48,5.9-1.1l0.66,2.77c-1.36,0.62-3.7,1.32-7.08,1.32
			c-6.56,0-10.47-4.31-10.47-10.74s3.79-11.49,9.99-11.49c6.95,0,8.8,6.12,8.8,10.03c0,0.79-0.09,1.41-0.13,1.8H878.66z
			 M890.01,383.51c0.04-2.46-1.01-6.29-5.37-6.29c-3.92,0-5.63,3.61-5.94,6.29H890.01z"/>
		<path d="M898.54,380.7c0-2.2-0.04-4-0.18-5.76h3.43l0.22,3.52h0.09c1.06-2.02,3.52-4,7.04-4c2.95,0,7.52,1.76,7.52,9.07v12.72
			h-3.87v-12.28c0-3.43-1.28-6.29-4.93-6.29c-2.55,0-4.53,1.8-5.19,3.96c-0.18,0.48-0.26,1.14-0.26,1.8v12.81h-3.87V380.7z"/>
		<path d="M927.45,368.81v6.12H933v2.95h-5.54v11.49c0,2.64,0.75,4.14,2.9,4.14c1.01,0,1.76-0.13,2.24-0.26l0.18,2.9
			c-0.75,0.31-1.94,0.53-3.43,0.53c-1.8,0-3.26-0.57-4.18-1.63c-1.1-1.14-1.5-3.04-1.5-5.54v-11.62h-3.3v-2.95h3.3v-5.11
			L927.45,368.81z"/>
		<path d="M936.82,392.27c1.14,0.75,3.17,1.54,5.1,1.54c2.82,0,4.14-1.41,4.14-3.17c0-1.85-1.1-2.86-3.96-3.92
			c-3.83-1.36-5.63-3.48-5.63-6.03c0-3.43,2.77-6.25,7.35-6.25c2.16,0,4.05,0.62,5.24,1.32l-0.97,2.82
			c-0.84-0.53-2.38-1.23-4.36-1.23c-2.29,0-3.56,1.32-3.56,2.9c0,1.76,1.28,2.55,4.05,3.61c3.7,1.41,5.59,3.26,5.59,6.43
			c0,3.74-2.9,6.38-7.96,6.38c-2.33,0-4.49-0.57-5.99-1.45L936.82,392.27z"/>
	</g>
	<g>
		<path d="M983.18,259.18H987v26.45h12.67v3.21h-16.5V259.18z"/>
		<path d="M1005.35,278.89c0.09,5.24,3.43,7.39,7.31,7.39c2.77,0,4.44-0.48,5.9-1.1l0.66,2.77c-1.36,0.62-3.7,1.32-7.08,1.32
			c-6.56,0-10.47-4.31-10.47-10.74s3.79-11.49,9.99-11.49c6.95,0,8.8,6.12,8.8,10.03c0,0.79-0.09,1.41-0.13,1.8H1005.35z
			 M1016.71,276.12c0.04-2.46-1.01-6.29-5.37-6.29c-3.92,0-5.63,3.61-5.94,6.29H1016.71z"/>
		<path d="M1026.74,267.54l4.18,11.97c0.7,1.94,1.28,3.7,1.72,5.46h0.13c0.48-1.76,1.1-3.52,1.8-5.46l4.14-11.97h4.05l-8.36,21.3
			h-3.7l-8.1-21.3H1026.74z"/>
		<path d="M1048.12,278.89c0.09,5.24,3.43,7.39,7.3,7.39c2.77,0,4.44-0.48,5.9-1.1l0.66,2.77c-1.36,0.62-3.7,1.32-7.08,1.32
			c-6.56,0-10.47-4.31-10.47-10.74s3.79-11.49,9.99-11.49c6.95,0,8.8,6.12,8.8,10.03c0,0.79-0.09,1.41-0.13,1.8H1048.12z
			 M1059.47,276.12c0.04-2.46-1.01-6.29-5.37-6.29c-3.92,0-5.63,3.61-5.94,6.29H1059.47z"/>
		<path d="M1068.01,257.59h3.87v31.24h-3.87V257.59z"/>
		<path d="M1087.85,288.84v-29.66h4.18l9.5,15.01c2.2,3.48,3.92,6.6,5.33,9.64l0.09-0.04c-0.35-3.96-0.44-7.57-0.44-12.19v-12.41
			h3.61v29.66h-3.87l-9.42-15.05c-2.07-3.3-4.05-6.69-5.54-9.9l-0.13,0.04c0.22,3.74,0.31,7.3,0.31,12.23v12.67H1087.85z"/>
		<path d="M1125.65,275.5v2.86h-10.87v-2.86H1125.65z"/>
		<path d="M1137.35,263.84h-0.09l-4.97,2.68l-0.75-2.95l6.25-3.34h3.3v28.6h-3.74V263.84z"/>
		<path d="M1182.93,287.87c-1.41,0.7-4.22,1.41-7.83,1.41c-8.36,0-14.65-5.28-14.65-15.01c0-9.29,6.29-15.58,15.49-15.58
			c3.7,0,6.03,0.79,7.04,1.32l-0.92,3.13c-1.45-0.71-3.52-1.23-5.99-1.23c-6.95,0-11.57,4.44-11.57,12.23
			c0,7.26,4.18,11.93,11.4,11.93c2.33,0,4.71-0.48,6.25-1.23L1182.93,287.87z"/>
		<path d="M1206.39,278.01c0,7.88-5.46,11.31-10.61,11.31c-5.76,0-10.21-4.22-10.21-10.96c0-7.13,4.67-11.31,10.56-11.31
			C1202.25,267.05,1206.39,271.5,1206.39,278.01z M1189.49,278.23c0,4.67,2.68,8.19,6.47,8.19c3.7,0,6.47-3.48,6.47-8.27
			c0-3.61-1.8-8.19-6.38-8.19C1191.47,269.96,1189.49,274.18,1189.49,278.23z"/>
		<path d="M1213.42,278.89c0.09,5.24,3.43,7.39,7.3,7.39c2.77,0,4.44-0.48,5.9-1.1l0.66,2.77c-1.36,0.62-3.7,1.32-7.08,1.32
			c-6.56,0-10.47-4.31-10.47-10.74s3.79-11.49,9.99-11.49c6.95,0,8.8,6.12,8.8,10.03c0,0.79-0.09,1.41-0.13,1.8H1213.42z
			 M1224.78,276.12c0.04-2.46-1.01-6.29-5.37-6.29c-3.92,0-5.63,3.61-5.94,6.29H1224.78z"/>
		<path d="M1259.98,261.38c-0.97-0.62-2.55-1.14-4.31-1.14c-4.09,0-5.32,2.86-5.32,6.25v1.06h12.41v21.3h-3.87v-18.35h-8.49v18.35
			h-3.87v-18.35h-8.98v18.35h-3.83v-18.35h-2.99v-2.95h2.99v-0.79c0-2.68,0.7-5.28,2.55-7.08c1.23-1.28,3.08-2.07,5.46-2.07
			c1.45,0,2.95,0.53,3.74,0.92l-1.06,2.86c-0.66-0.35-1.67-0.75-2.68-0.75c-1.23,0-2.11,0.44-2.77,1.14
			c-1.06,1.14-1.41,3.08-1.41,4.93v0.84h8.98v-1.14c0-5.63,3.34-9.29,9.33-9.29c1.94,0,4.14,0.57,5.28,1.36L1259.98,261.38z"/>
		<path d="M1284.35,288.04c-1.01,0.53-3.26,1.23-6.12,1.23c-6.42,0-10.61-4.36-10.61-10.87c0-6.56,4.49-11.31,11.44-11.31
			c2.29,0,4.31,0.57,5.37,1.1l-0.88,2.99c-0.92-0.53-2.38-1.01-4.49-1.01c-4.88,0-7.53,3.61-7.53,8.05c0,4.93,3.17,7.96,7.39,7.96
			c2.2,0,3.65-0.57,4.75-1.06L1284.35,288.04z"/>
		<path d="M1293.2,261.55c0.04,1.32-0.92,2.38-2.46,2.38c-1.36,0-2.33-1.06-2.33-2.38c0-1.36,1.01-2.42,2.42-2.42
			C1292.27,259.13,1293.2,260.19,1293.2,261.55z M1288.88,288.84v-21.3h3.87v21.3H1288.88z"/>
		<path d="M1301.33,278.89c0.09,5.24,3.43,7.39,7.3,7.39c2.77,0,4.44-0.48,5.9-1.1l0.66,2.77c-1.36,0.62-3.7,1.32-7.08,1.32
			c-6.56,0-10.47-4.31-10.47-10.74s3.79-11.49,9.99-11.49c6.95,0,8.8,6.12,8.8,10.03c0,0.79-0.09,1.41-0.13,1.8H1301.33z
			 M1312.69,276.12c0.04-2.46-1.01-6.29-5.37-6.29c-3.92,0-5.63,3.61-5.94,6.29H1312.69z"/>
		<path d="M1321.22,273.3c0-2.2-0.04-4-0.18-5.76h3.43l0.22,3.52h0.09c1.06-2.02,3.52-4,7.04-4c2.95,0,7.52,1.76,7.52,9.07v12.72
			h-3.87v-12.28c0-3.43-1.28-6.29-4.93-6.29c-2.55,0-4.53,1.8-5.19,3.96c-0.18,0.48-0.26,1.14-0.26,1.8v12.81h-3.87V273.3z"/>
		<path d="M1350.13,261.42v6.12h5.54v2.95h-5.54v11.49c0,2.64,0.75,4.14,2.9,4.14c1.01,0,1.76-0.13,2.25-0.26l0.18,2.9
			c-0.75,0.31-1.94,0.53-3.43,0.53c-1.8,0-3.26-0.57-4.18-1.63c-1.1-1.14-1.5-3.04-1.5-5.54v-11.62h-3.3v-2.95h3.3v-5.11
			L1350.13,261.42z"/>
		<path d="M1359.5,284.88c1.14,0.75,3.17,1.54,5.1,1.54c2.82,0,4.14-1.41,4.14-3.17c0-1.85-1.1-2.86-3.96-3.92
			c-3.83-1.36-5.63-3.48-5.63-6.03c0-3.43,2.77-6.25,7.35-6.25c2.16,0,4.05,0.62,5.24,1.32l-0.97,2.82
			c-0.84-0.53-2.38-1.23-4.36-1.23c-2.29,0-3.56,1.32-3.56,2.9c0,1.76,1.28,2.55,4.05,3.61c3.7,1.41,5.59,3.26,5.59,6.43
			c0,3.74-2.9,6.38-7.96,6.38c-2.33,0-4.49-0.57-5.99-1.45L1359.5,284.88z"/>
	</g>
	<g>
		<path d="M1370.48,151.72h3.83v26.45h12.67v3.21h-16.5V151.72z"/>
		<path d="M1392.66,171.43c0.09,5.24,3.43,7.39,7.3,7.39c2.77,0,4.44-0.48,5.9-1.1l0.66,2.77c-1.36,0.62-3.7,1.32-7.08,1.32
			c-6.56,0-10.47-4.31-10.47-10.74s3.78-11.49,9.99-11.49c6.95,0,8.8,6.12,8.8,10.03c0,0.79-0.09,1.41-0.13,1.8H1392.66z
			 M1404.01,168.66c0.04-2.46-1.01-6.29-5.37-6.29c-3.92,0-5.63,3.61-5.94,6.29H1404.01z"/>
		<path d="M1414.04,160.08l4.18,11.97c0.7,1.94,1.28,3.7,1.72,5.46h0.13c0.48-1.76,1.1-3.52,1.8-5.46l4.14-11.97h4.05l-8.36,21.3
			h-3.7l-8.1-21.3H1414.04z"/>
		<path d="M1435.43,171.43c0.09,5.24,3.43,7.39,7.3,7.39c2.77,0,4.44-0.48,5.9-1.1l0.66,2.77c-1.36,0.62-3.7,1.32-7.08,1.32
			c-6.56,0-10.47-4.31-10.47-10.74s3.79-11.49,9.99-11.49c6.95,0,8.8,6.12,8.8,10.03c0,0.79-0.09,1.41-0.13,1.8H1435.43z
			 M1446.78,168.66c0.04-2.46-1.01-6.29-5.37-6.29c-3.92,0-5.63,3.61-5.94,6.29H1446.78z"/>
		<path d="M1455.31,150.13h3.87v31.24h-3.87V150.13z"/>
		<path d="M1475.16,181.38v-29.66h4.18l9.5,15.01c2.2,3.48,3.92,6.6,5.33,9.64l0.09-0.04c-0.35-3.96-0.44-7.57-0.44-12.19v-12.41
			h3.61v29.66h-3.87l-9.42-15.05c-2.07-3.3-4.05-6.69-5.54-9.9l-0.13,0.04c0.22,3.74,0.31,7.3,0.31,12.23v12.67H1475.16z"/>
		<path d="M1512.95,168.04v2.86h-10.87v-2.86H1512.95z"/>
		<path d="M1516.25,181.38V179l3.04-2.95c7.3-6.95,10.61-10.65,10.65-14.96c0-2.9-1.41-5.59-5.68-5.59c-2.6,0-4.75,1.32-6.07,2.42
			l-1.23-2.73c1.98-1.67,4.8-2.9,8.1-2.9c6.16,0,8.76,4.22,8.76,8.32c0,5.28-3.83,9.55-9.86,15.36l-2.29,2.11v0.09h12.85v3.21
			H1516.25z"/>
		<path d="M1570.24,180.41c-1.41,0.7-4.22,1.41-7.83,1.41c-8.36,0-14.65-5.28-14.65-15.01c0-9.29,6.29-15.58,15.49-15.58
			c3.7,0,6.03,0.79,7.04,1.32l-0.92,3.13c-1.45-0.71-3.52-1.23-5.99-1.23c-6.95,0-11.57,4.44-11.57,12.23
			c0,7.26,4.18,11.93,11.4,11.93c2.33,0,4.71-0.48,6.25-1.23L1570.24,180.41z"/>
		<path d="M1593.69,170.55c0,7.88-5.46,11.31-10.61,11.31c-5.76,0-10.21-4.22-10.21-10.96c0-7.13,4.67-11.31,10.56-11.31
			C1589.56,159.59,1593.69,164.04,1593.69,170.55z M1576.79,170.77c0,4.67,2.68,8.19,6.47,8.19c3.7,0,6.47-3.48,6.47-8.27
			c0-3.61-1.8-8.19-6.38-8.19C1578.78,162.5,1576.79,166.72,1576.79,170.77z"/>
		<path d="M1600.73,171.43c0.09,5.24,3.43,7.39,7.3,7.39c2.77,0,4.44-0.48,5.9-1.1l0.66,2.77c-1.36,0.62-3.7,1.32-7.08,1.32
			c-6.56,0-10.47-4.31-10.47-10.74s3.79-11.49,9.99-11.49c6.95,0,8.8,6.12,8.8,10.03c0,0.79-0.09,1.41-0.13,1.8H1600.73z
			 M1612.08,168.66c0.04-2.46-1.01-6.29-5.37-6.29c-3.92,0-5.63,3.61-5.94,6.29H1612.08z"/>
		<path d="M1647.29,153.92c-0.97-0.62-2.55-1.14-4.31-1.14c-4.09,0-5.32,2.86-5.32,6.25v1.06h12.41v21.3h-3.87v-18.35h-8.49v18.35
			h-3.87v-18.35h-8.98v18.35h-3.83v-18.35h-2.99v-2.95h2.99v-0.79c0-2.68,0.7-5.28,2.55-7.08c1.23-1.28,3.08-2.07,5.46-2.07
			c1.45,0,2.95,0.53,3.74,0.92l-1.06,2.86c-0.66-0.35-1.67-0.75-2.68-0.75c-1.23,0-2.11,0.44-2.77,1.14
			c-1.06,1.14-1.41,3.08-1.41,4.93v0.84h8.98v-1.14c0-5.63,3.34-9.29,9.33-9.29c1.94,0,4.14,0.57,5.28,1.36L1647.29,153.92z"/>
		<path d="M1671.66,180.58c-1.01,0.53-3.26,1.23-6.12,1.23c-6.42,0-10.61-4.36-10.61-10.87c0-6.56,4.49-11.31,11.44-11.31
			c2.29,0,4.31,0.57,5.37,1.1l-0.88,2.99c-0.92-0.53-2.38-1.01-4.49-1.01c-4.88,0-7.53,3.61-7.53,8.05c0,4.93,3.17,7.96,7.39,7.96
			c2.2,0,3.65-0.57,4.75-1.06L1671.66,180.58z"/>
		<path d="M1680.5,154.09c0.04,1.32-0.92,2.38-2.46,2.38c-1.36,0-2.33-1.06-2.33-2.38c0-1.36,1.01-2.42,2.42-2.42
			C1679.58,151.67,1680.5,152.73,1680.5,154.09z M1676.19,181.38v-21.3h3.87v21.3H1676.19z"/>
		<path d="M1688.64,171.43c0.09,5.24,3.43,7.39,7.3,7.39c2.77,0,4.44-0.48,5.9-1.1l0.66,2.77c-1.36,0.62-3.7,1.32-7.08,1.32
			c-6.56,0-10.47-4.31-10.47-10.74s3.79-11.49,9.99-11.49c6.95,0,8.8,6.12,8.8,10.03c0,0.79-0.09,1.41-0.13,1.8H1688.64z
			 M1700,168.66c0.04-2.46-1.01-6.29-5.37-6.29c-3.92,0-5.63,3.61-5.94,6.29H1700z"/>
		<path d="M1708.53,165.84c0-2.2-0.04-4-0.18-5.76h3.43l0.22,3.52h0.09c1.06-2.02,3.52-4,7.04-4c2.95,0,7.52,1.76,7.52,9.07v12.72
			h-3.87V169.1c0-3.43-1.28-6.29-4.93-6.29c-2.55,0-4.53,1.8-5.19,3.96c-0.18,0.48-0.26,1.14-0.26,1.8v12.81h-3.87V165.84z"/>
		<path d="M1737.44,153.96v6.12h5.54v2.95h-5.54v11.49c0,2.64,0.75,4.14,2.9,4.14c1.01,0,1.76-0.13,2.25-0.26l0.18,2.9
			c-0.75,0.31-1.94,0.53-3.43,0.53c-1.8,0-3.26-0.57-4.18-1.63c-1.1-1.14-1.5-3.04-1.5-5.54v-11.62h-3.3v-2.95h3.3v-5.11
			L1737.44,153.96z"/>
		<path d="M1746.81,177.41c1.14,0.75,3.17,1.54,5.1,1.54c2.82,0,4.14-1.41,4.14-3.17c0-1.85-1.1-2.86-3.96-3.92
			c-3.83-1.36-5.63-3.48-5.63-6.03c0-3.43,2.77-6.25,7.35-6.25c2.16,0,4.05,0.62,5.24,1.32l-0.97,2.82
			c-0.84-0.53-2.38-1.23-4.36-1.23c-2.29,0-3.56,1.32-3.56,2.9c0,1.76,1.28,2.55,4.05,3.61c3.7,1.41,5.59,3.26,5.59,6.43
			c0,3.74-2.9,6.38-7.96,6.38c-2.33,0-4.49-0.57-5.99-1.45L1746.81,177.41z"/>
	</g>
	<rect x="15" y="13" class="st1" width="501" height="184"/>
	<g>
		<path d="M46.83,96.92c-0.09,1.54-0.18,3.26-0.18,5.85v12.37c0,4.88-0.97,7.88-3.04,9.73c-2.07,1.94-5.06,2.55-7.75,2.55
			c-2.55,0-5.37-0.62-7.08-1.76l0.97-2.95c1.41,0.88,3.61,1.67,6.25,1.67c3.96,0,6.87-2.07,6.87-7.44v-2.38h-0.09
			c-1.19,1.98-3.48,3.56-6.78,3.56c-5.28,0-9.06-4.49-9.06-10.39c0-7.22,4.71-11.31,9.59-11.31c3.7,0,5.72,1.94,6.65,3.7h0.09
			l0.18-3.21H46.83z M42.82,105.33c0-0.66-0.04-1.23-0.22-1.76c-0.7-2.24-2.6-4.09-5.41-4.09c-3.7,0-6.34,3.12-6.34,8.05
			c0,4.18,2.11,7.66,6.29,7.66c2.38,0,4.53-1.5,5.37-3.96c0.22-0.66,0.31-1.41,0.31-2.07V105.33z"/>
		<path d="M61.48,87.68c-3.21,4.31-5.54,10.03-5.54,18c0,7.83,2.42,13.47,5.54,17.87h-3.04c-2.77-3.65-5.76-9.29-5.76-17.87
			c0.04-8.67,2.99-14.3,5.76-18H61.48z"/>
		<path d="M65.57,102.69c0-2.2-0.04-4-0.18-5.77h3.43l0.22,3.52h0.09c1.06-2.02,3.52-4,7.04-4c2.95,0,7.53,1.76,7.53,9.07v12.72
			h-3.87v-12.28c0-3.43-1.28-6.29-4.93-6.29c-2.55,0-4.53,1.8-5.19,3.96c-0.18,0.48-0.26,1.14-0.26,1.8v12.81h-3.87V102.69z"/>
		<path d="M87.66,123.55c3.12-4.36,5.54-10.08,5.54-18c0-7.88-2.38-13.51-5.54-17.87h2.99c2.82,3.61,5.76,9.24,5.76,17.91
			c0,8.63-2.95,14.21-5.76,17.95H87.66z"/>
		<path d="M101.56,100.44c0-1.63,1.1-2.77,2.64-2.77s2.55,1.14,2.6,2.77c0,1.54-1.01,2.73-2.64,2.73
			C102.62,103.17,101.56,101.98,101.56,100.44z M101.56,115.98c0-1.63,1.1-2.77,2.64-2.77s2.55,1.14,2.6,2.77
			c0,1.54-1.01,2.73-2.64,2.73C102.62,118.71,101.56,117.52,101.56,115.98z"/>
	</g>
	<g>
		<path d="M261.56,86.98h3.87v13.29h0.09c0.62-1.1,1.58-2.07,2.77-2.73c1.14-0.66,2.51-1.1,3.96-1.1c2.86,0,7.44,1.76,7.44,9.11
			v12.67h-3.87v-12.23c0-3.43-1.28-6.34-4.93-6.34c-2.51,0-4.49,1.76-5.19,3.87c-0.22,0.53-0.26,1.1-0.26,1.85v12.85h-3.87V86.98z"
			/>
		<path d="M294.39,87.68c-3.21,4.31-5.54,10.03-5.54,18c0,7.83,2.42,13.47,5.54,17.87h-3.04c-2.77-3.65-5.76-9.29-5.76-17.87
			c0.04-8.67,2.99-14.3,5.76-18H294.39z"/>
		<path d="M298.48,102.69c0-2.2-0.04-4-0.18-5.77h3.43l0.22,3.52h0.09c1.06-2.02,3.52-4,7.04-4c2.95,0,7.53,1.76,7.53,9.07v12.72
			h-3.87v-12.28c0-3.43-1.28-6.29-4.93-6.29c-2.55,0-4.53,1.8-5.19,3.96c-0.18,0.48-0.26,1.14-0.26,1.8v12.81h-3.87V102.69z"/>
		<path d="M320.57,123.55c3.12-4.36,5.54-10.08,5.54-18c0-7.88-2.38-13.51-5.54-17.87h2.99c2.82,3.61,5.76,9.24,5.76,17.91
			c0,8.63-2.95,14.21-5.76,17.95H320.57z"/>
		<path d="M334.47,100.44c0-1.63,1.1-2.77,2.64-2.77s2.55,1.14,2.6,2.77c0,1.54-1.01,2.73-2.64,2.73
			C335.53,103.17,334.47,101.98,334.47,100.44z M334.47,115.98c0-1.63,1.1-2.77,2.64-2.77s2.55,1.14,2.6,2.77
			c0,1.54-1.01,2.73-2.64,2.73C335.53,118.71,334.47,117.52,334.47,115.98z"/>
	</g>
	<line class="st1" x1="121" y1="108" x2="230" y2="108"/>
	<g>
		<g>
			<line class="st1" x1="146" y1="62.43" x2="146" y2="108"/>
			<g>
				<path d="M139.23,62.77c0-3.74,3.03-6.77,6.77-6.77s6.77,3.03,6.77,6.77c0,3.74-3.03,6.77-6.77,6.77S139.23,66.5,139.23,62.77z"
					/>
			</g>
		</g>
	</g>
	<g>
		<g>
			<line class="st1" x1="204" y1="62.43" x2="204" y2="108"/>
			<g>
				<path d="M197.23,62.77c0-3.74,3.03-6.77,6.77-6.77s6.77,3.03,6.77,6.77c0,3.74-3.03,6.77-6.77,6.77S197.23,66.5,197.23,62.77z"
					/>
			</g>
		</g>
	</g>
	<g>
		<path d="M151.53,122.95c0,5.3-1.97,8.23-5.42,8.23c-3.05,0-5.11-2.86-5.16-8.02c0-5.23,2.26-8.11,5.42-8.11
			C149.65,115.06,151.53,117.99,151.53,122.95z M143.05,123.19c0,4.06,1.25,6.36,3.17,6.36c2.16,0,3.19-2.52,3.19-6.5
			c0-3.84-0.98-6.36-3.17-6.36C144.4,116.69,143.05,118.95,143.05,123.19z"/>
	</g>
	<g>
		<path d="M225.19,44.42V26.61h-0.11l-3.9,1.9l-0.6-2.81l5.09-2.38h3.3v21.11H225.19z"/>
		<path d="M224.1,59.42l20.52-36.38h3.09l-20.57,36.38H224.1z"/>
		<path d="M251.28,56.82l3.41-3.19c4.49-4.06,6.82-6.6,6.82-9.37c0-2.06-1.3-3.79-4.11-3.79c-1.89,0-3.52,0.97-4.55,1.68l-1.14-2.44
			c1.46-1.25,3.9-2.27,6.6-2.27c5.09,0,7.2,3.19,7.2,6.12c0,4.06-3.09,7.04-7.2,10.67l-1.68,1.52v0.11h9.26v2.98h-14.62V56.82z"/>
	</g>
	<polyline class="st2" points="270,33 248.79,33 248.55,34.31 244.11,56.87 237,49.48 	"/>
	<g>
	</g>
	<line class="st1" x1="353.32" y1="107.87" x2="462.32" y2="107.87"/>
	<g>
		<g>
			<line class="st1" x1="437.1" y1="154.29" x2="437.1" y2="108.72"/>
			<g>
				<path d="M443.87,153.95c0,3.74-3.03,6.77-6.77,6.77c-3.74,0-6.77-3.03-6.77-6.77c0-3.74,3.03-6.77,6.77-6.77
					C440.83,147.18,443.87,150.21,443.87,153.95z"/>
			</g>
		</g>
	</g>
	<g>
		<g>
			<line class="st1" x1="378.01" y1="62.56" x2="378.01" y2="108.13"/>
			<g>
				<path d="M371.24,62.9c0-3.74,3.03-6.77,6.77-6.77c3.74,0,6.77,3.03,6.77,6.77c0,3.74-3.03,6.77-6.77,6.77
					C374.27,69.67,371.24,66.64,371.24,62.9z"/>
			</g>
		</g>
	</g>
	<g>
		<path d="M383.84,121.82c0,5.3-1.97,8.23-5.42,8.23c-3.05,0-5.11-2.86-5.16-8.02c0-5.23,2.26-8.11,5.42-8.11
			C381.97,113.92,383.84,116.85,383.84,121.82z M375.37,122.06c0,4.06,1.25,6.36,3.17,6.36c2.16,0,3.19-2.52,3.19-6.5
			c0-3.84-0.98-6.36-3.17-6.36C376.71,115.56,375.37,117.81,375.37,122.06z"/>
	</g>
	<g>
		<path d="M458.28,43.64V25.83h-0.11l-3.9,1.9l-0.6-2.81l5.09-2.38h3.3v21.11H458.28z"/>
		<path d="M457.2,58.64l20.52-36.38h3.09l-20.57,36.38H457.2z"/>
		<path d="M484.38,56.04l3.41-3.19c4.49-4.06,6.82-6.6,6.82-9.37c0-2.06-1.3-3.79-4.11-3.79c-1.89,0-3.52,0.97-4.55,1.68l-1.14-2.44
			c1.46-1.25,3.9-2.27,6.6-2.27c5.09,0,7.2,3.19,7.2,6.12c0,4.06-3.09,7.04-7.2,10.67l-1.68,1.52v0.11H499v2.98h-14.62V56.04z"/>
	</g>
	<polyline class="st2" points="503.1,32.22 481.88,32.22 481.64,33.53 477.21,56.09 470.1,48.7 	"/>
	<g>
		<path d="M452.49,169.58v3.52h-13.37v-3.52H452.49z"/>
		<path d="M459.9,175.64v-17.81h-0.11l-3.9,1.9l-0.6-2.81l5.09-2.38h3.3v21.11H459.9z"/>
		<path d="M458.82,190.64l20.52-36.38h3.09l-20.57,36.38H458.82z"/>
		<path d="M486,188.04l3.41-3.19c4.49-4.06,6.82-6.6,6.82-9.37c0-2.06-1.3-3.79-4.11-3.79c-1.89,0-3.52,0.97-4.55,1.68l-1.14-2.44
			c1.46-1.25,3.9-2.27,6.6-2.27c5.09,0,7.2,3.19,7.2,6.12c0,4.06-3.09,7.04-7.2,10.67l-1.68,1.52v0.11h9.26v2.98H486V188.04z"/>
	</g>
	<polyline class="st2" points="504.1,164.22 482.88,164.22 482.64,165.53 478.21,188.09 471.1,180.7 	"/>
	<g>
	</g>
	<g>
	</g>
	<g>
	</g>
	<g>
	</g>
	<g>
	</g>
	<g>
	</g>
	<g>
	</g>
	<g>
	</g>
	<g>
	</g>
	<g>
	</g>
	<g>
	</g>
	<g>
	</g>
	<g>
	</g>
	<g>
	</g>
	<g>
	</g>
	<g>
	</g>
	<g>
	</g>
	<g>
	</g>
</g>
</svg>
