<?xml version="1.0" encoding="utf-8"?>
<!-- Generator: Adobe Illustrator 24.1.2, SVG Export Plug-In . SVG Version: 6.00 Build 0)  -->
<svg version="1.1" id="Layer_1" xmlns="http://www.w3.org/2000/svg" xmlns:xlink="http://www.w3.org/1999/xlink" x="0px" y="0px"
	 viewBox="0 0 943.3 202" style="enable-background:new 0 0 943.3 202;" xml:space="preserve">
<style type="text/css">
	.st0{fill:#FFFFFF;stroke:#FFFFFF;stroke-miterlimit:10;}
	.st1{stroke:#000000;stroke-width:1.13;stroke-miterlimit:11.3;}
	.st2{fill:none;stroke:#000000;stroke-width:6;stroke-miterlimit:10;}
	.st3{fill:none;stroke:#000000;stroke-width:4;stroke-miterlimit:10;}
	.st4{fill:none;stroke:#3FA9F5;stroke-width:6;stroke-miterlimit:10;}
	.st5{fill:none;stroke:#7AC943;stroke-width:6;stroke-miterlimit:10;}
	.st6{fill:none;stroke:#FF931E;stroke-width:6;stroke-miterlimit:10;}
	.st7{fill:none;stroke:#FF1D25;stroke-width:6;stroke-miterlimit:10;}
	.st8{enable-background:new    ;}
</style>
<g id="Layer_2_1_">
	<rect y="-0.5" class="st0" width="943.8" height="202"/>
</g>
<g id="Layer_1_1_">
	<g id="page1_2_" transform="matrix(1.13 0 0 1.13 -63.986043 -61.019991)">
		<g>
			<path id="g0-9_1_" class="st1" d="M92,72.7c0-1.9,0.1-2.4,4.1-2.4h1.2v-1.4C95.1,69,92.6,69,90.3,69s-4.9,0-7.1-0.1v1.4h1.2
				c4,0,4.1,0.6,4.1,2.5v25.3c-7.9-1.6-8-11.7-8-14.6c-0.1-5.2-1.4-7.9-4.8-7.9h-1.4c-0.9,0-1.2,0-1.2,0.4c0,0.1,0,0.4,0.3,0.4
				c1.5,0.3,3.6,0.6,3.7,8c0.1,5.1,1.9,13.6,11.5,14.7v3.2c0,2-0.1,2.5-4.3,2.5h-1v1.4c2.2-0.1,4.8-0.1,7.1-0.1s4.8,0,7.1,0.1v-1.4
				h-1.2c-4,0-4.1-0.6-4.1-2.5V98c10.9-1.2,11.1-12.2,11.1-15.2c0-2.4,0.5-5.8,3.2-6.4c0.5-0.1,0.6-0.1,0.6-0.4
				c0-0.4-0.3-0.4-1.2-0.4h-1.4c-3.5,0-4.6,2.7-4.6,8.2c-0.1,5.6-1.5,12-7.7,13.3L92,72.7L92,72.7z"/>
		</g>
	</g>
	<path class="st2" d="M390.3,107.3"/>
	<path class="st3" d="M23.2,148.3"/>
	<line class="st4" x1="102.5" y1="106.9" x2="148.5" y2="106.9"/>
	<line class="st5" x1="148.5" y1="106.9" x2="194.5" y2="106.9"/>
	<line class="st6" x1="194.5" y1="106.9" x2="240.5" y2="106.9"/>
	<line class="st7" x1="239.5" y1="106.9" x2="285.5" y2="106.9"/>
	<line class="st4" x1="285.5" y1="106.9" x2="331.5" y2="106.9"/>
	<line class="st5" x1="331.5" y1="106.9" x2="377.5" y2="106.9"/>
	<path class="st6" d="M423.5,106.9"/>
	<path class="st6" d="M377.5,106.9"/>
	<path class="st7" d="M353.6,106.9"/>
	<path class="st7" d="M422.5,106.9"/>
	<line class="st2" x1="56.5" y1="106.9" x2="102.5" y2="106.9"/>
	<g class="st8">
		<path d="M95.8,127.7c0-3,0.3-5.5,0.9-7.4s1.6-3.3,2.8-4.3s2.8-1.5,4.7-1.5c1.4,0,2.6,0.3,3.6,0.8s1.9,1.4,2.6,2.4s1.2,2.3,1.6,3.8
			s0.6,3.5,0.6,6.1c0,3-0.3,5.5-0.9,7.3s-1.5,3.3-2.8,4.3s-2.8,1.5-4.7,1.5c-2.5,0-4.4-0.9-5.9-2.7C96.7,136,95.8,132.5,95.8,127.7z
			 M99.1,127.7c0,4.2,0.5,7,1.5,8.4s2.2,2.1,3.7,2.1s2.7-0.7,3.7-2.1s1.5-4.2,1.5-8.4c0-4.2-0.5-7.1-1.5-8.5s-2.2-2.1-3.7-2.1
			c-1.5,0-2.6,0.6-3.5,1.8C99.6,120.6,99.1,123.5,99.1,127.7z"/>
	</g>
	<path class="st2" d="M399.6,106.9"/>
	<path class="st2" d="M353.6,106.9"/>
	<polyline class="st2" points="102.5,109.9 102.5,35.9 194,35.9 194,177.9 285.5,177.9 285.5,103.9 	"/>
	<g class="st8">
		<path d="M59.9,68.5h-2.3V54c-0.6,0.5-1.3,1-2.2,1.6s-1.7,0.9-2.4,1.2v-2.2c1.3-0.6,2.4-1.3,3.4-2.2s1.6-1.7,2-2.5h1.5V68.5z"/>
		<path d="M67,68.5v-2.6h2.6v2.6c0,1-0.2,1.7-0.5,2.3c-0.3,0.6-0.9,1-1.6,1.4l-0.6-1c0.5-0.2,0.8-0.5,1.1-0.9c0.2-0.4,0.4-1,0.4-1.8
			H67z"/>
		<path d="M72.9,59.4c0-2.2,0.2-4,0.7-5.3c0.5-1.3,1.1-2.4,2-3.1s2-1.1,3.4-1.1c1,0,1.9,0.2,2.6,0.6c0.8,0.4,1.4,1,1.9,1.7
			c0.5,0.8,0.9,1.7,1.2,2.8c0.3,1.1,0.4,2.6,0.4,4.4c0,2.2-0.2,3.9-0.7,5.3c-0.4,1.3-1.1,2.4-2,3.1c-0.9,0.7-2,1.1-3.4,1.1
			c-1.8,0-3.2-0.6-4.2-1.9C73.6,65.4,72.9,62.9,72.9,59.4z M75.3,59.4c0,3.1,0.4,5.1,1.1,6.1c0.7,1,1.6,1.5,2.6,1.5s1.9-0.5,2.6-1.5
			s1.1-3,1.1-6.1c0-3.1-0.4-5.1-1.1-6.1s-1.6-1.5-2.7-1.5c-1,0-1.9,0.4-2.5,1.3C75.7,54.2,75.3,56.3,75.3,59.4z"/>
	</g>
	<g id="page1_3_" transform="matrix(1.13 0 0 1.13 -63.986043 -61.019991)">
		<g>
			<path id="g0-9_2_" class="st1" d="M458.5,72.7c0-1.9,0.1-2.4,4.1-2.4h1.2v-1.4c-2.2,0.1-4.8,0.1-7,0.1s-4.9,0-7.1-0.1v1.4h1.2
				c4,0,4.1,0.6,4.1,2.5v25.3c-7.9-1.6-8-11.7-8-14.6c-0.1-5.2-1.4-7.9-4.8-7.9h-1.4c-0.9,0-1.2,0-1.2,0.4c0,0.1,0,0.4,0.3,0.4
				c1.5,0.3,3.6,0.6,3.7,8c0.1,5.1,1.9,13.6,11.5,14.7v3.2c0,2-0.1,2.5-4.3,2.5h-1v1.4c2.2-0.1,4.8-0.1,7.1-0.1s4.8,0,7,0.1v-1.4
				h-1.2c-4,0-4.1-0.6-4.1-2.5V98c10.9-1.2,11-12.2,11-15.2c0-2.4,0.5-5.8,3.2-6.4c0.5-0.1,0.6-0.1,0.6-0.4c0-0.4-0.3-0.4-1.2-0.4
				h-1.4c-3.5,0-4.6,2.7-4.6,8.2c0,5.6-1.5,12-7.7,13.3L458.5,72.7L458.5,72.7z"/>
		</g>
	</g>
	<path class="st2" d="M919.3,107.3"/>
	<line class="st4" x1="516.6" y1="106.9" x2="562.6" y2="106.9"/>
	<line class="st5" x1="562.6" y1="106.9" x2="608.6" y2="106.9"/>
	<line class="st6" x1="608.6" y1="106.9" x2="654.6" y2="106.9"/>
	<line class="st7" x1="653.6" y1="106.9" x2="699.6" y2="106.9"/>
	<line class="st4" x1="699.6" y1="106.9" x2="745.6" y2="106.9"/>
	<line class="st5" x1="745.6" y1="106.9" x2="791.6" y2="106.9"/>
	<line class="st6" x1="791.6" y1="106.9" x2="837.6" y2="106.9"/>
	<line class="st7" x1="836.6" y1="106.9" x2="882.6" y2="106.9"/>
	<polyline class="st2" points="470.6,106.9 516.6,106.9 699.6,106.9 	"/>
	<g class="st8">
		<path d="M509.9,127.7c0-3,0.3-5.5,0.9-7.4s1.6-3.3,2.8-4.3s2.8-1.5,4.7-1.5c1.4,0,2.6,0.3,3.6,0.8s1.9,1.4,2.6,2.4
			s1.2,2.3,1.6,3.8s0.6,3.5,0.6,6.1c0,3-0.3,5.5-0.9,7.3s-1.6,3.3-2.8,4.3s-2.8,1.5-4.7,1.5c-2.5,0-4.4-0.9-5.9-2.7
			C510.8,136,509.9,132.5,509.9,127.7z M513.2,127.7c0,4.2,0.5,7,1.5,8.4s2.2,2.1,3.7,2.1s2.7-0.7,3.7-2.1s1.5-4.2,1.5-8.4
			c0-4.2-0.5-7.1-1.5-8.5s-2.2-2.1-3.7-2.1c-1.5,0-2.6,0.6-3.5,1.8C513.7,120.6,513.2,123.5,513.2,127.7z"/>
	</g>
	<line class="st2" x1="882.6" y1="106.9" x2="928.6" y2="106.9"/>
	<polyline class="st2" points="699.6,109.9 699.6,35.9 791.1,35.9 791.1,177.9 882.6,177.9 882.6,103.9 	"/>
	<g class="st8">
		<path d="M473.9,68.5h-2.3V54c-0.5,0.5-1.3,1-2.2,1.6c-0.9,0.5-1.7,0.9-2.4,1.2v-2.2c1.3-0.6,2.4-1.3,3.4-2.2c1-0.9,1.6-1.7,2-2.5
			h1.5V68.5z"/>
		<path d="M481,68.5v-2.6h2.6v2.6c0,1-0.2,1.7-0.5,2.3c-0.3,0.6-0.9,1-1.6,1.4l-0.6-1c0.5-0.2,0.8-0.5,1.1-0.9
			c0.2-0.4,0.4-1,0.4-1.8H481z"/>
		<path d="M495.6,68.5h-2.3V54c-0.5,0.5-1.3,1-2.2,1.6c-0.9,0.5-1.7,0.9-2.4,1.2v-2.2c1.3-0.6,2.4-1.3,3.4-2.2c1-0.9,1.6-1.7,2-2.5
			h1.5V68.5z"/>
	</g>
	<line class="st2" x1="285.5" y1="106.9" x2="408.5" y2="106.9"/>
</g>
</svg>
