<?xml version="1.0" encoding="utf-8"?>
<!-- Generator: Adobe Illustrator 24.1.2, SVG Export Plug-In . SVG Version: 6.00 Build 0)  -->
<svg version="1.1" id="Layer_1" xmlns="http://www.w3.org/2000/svg" xmlns:xlink="http://www.w3.org/1999/xlink" x="0px" y="0px"
	 viewBox="0 0 982.2 202" style="enable-background:new 0 0 982.2 202;" xml:space="preserve">
<style type="text/css">
	.st0{fill:#FFFFFF;}
	.st1{fill:none;stroke:#000000;stroke-width:6;stroke-miterlimit:10;}
	.st2{fill:none;stroke:#000000;stroke-width:4;stroke-miterlimit:10;}
	.st3{fill:none;stroke:#3FA9F5;stroke-width:6;stroke-miterlimit:10;}
	.st4{fill:none;stroke:#7AC943;stroke-width:6;stroke-miterlimit:10;}
	.st5{fill:none;stroke:#FF931E;stroke-width:6;stroke-miterlimit:10;}
	.st6{fill:none;stroke:#FF1D25;stroke-width:6;stroke-miterlimit:10;}
	.st7{enable-background:new    ;}
	.st8{stroke:#000000;stroke-width:1.13;stroke-miterlimit:11.3;}
</style>
<rect class="st0" width="982.2" height="202"/>
<g id="Layer_1_1_">
	<path class="st1" d="M273.5,107.3"/>
	<path class="st2" d="M16.9,148.3"/>
	<line class="st3" x1="95.9" y1="107" x2="141.9" y2="107"/>
	<line class="st4" x1="141.9" y1="107" x2="187.9" y2="107"/>
	<line class="st5" x1="187.9" y1="107" x2="233.9" y2="107"/>
	<line class="st6" x1="232.9" y1="107" x2="278.9" y2="107"/>
	<line class="st3" x1="278.9" y1="107" x2="324.9" y2="107"/>
	<path class="st5" d="M191.5,107"/>
	<path class="st5" d="M370.9,107"/>
	<line class="st1" x1="49.9" y1="107" x2="95.9" y2="107"/>
	<g class="st7">
		<path d="M105.2,128.4c0,8-2.9,12.4-8.1,12.4c-4.6,0-7.7-4.3-7.7-12c0-7.8,3.4-12.2,8.1-12.2C102.4,116.6,105.2,121,105.2,128.4z
			 M92.5,128.8c0,6.1,1.9,9.5,4.8,9.5c3.2,0,4.8-3.8,4.8-9.8c0-5.8-1.5-9.5-4.8-9.5C94.5,119.1,92.5,122.4,92.5,128.8z"/>
	</g>
	<path class="st1" d="M282.5,107"/>
	<path class="st1" d="M236.5,107"/>
	<polyline class="st1" points="95.9,110 95.9,36 187.9,36 187.9,178 278.9,178 278.9,104 	"/>
	<g class="st7">
		<path d="M50,53.8L50,53.8l-3,1.6l-0.4-1.7l3.7-2h2v16.9H50C50,68.5,50,53.8,50,53.8z"/>
		<path d="M57.6,71.8c0.6-1.5,1.3-4.3,1.6-6.2l2.6-0.3c-0.6,2.2-1.7,5.1-2.5,6.3L57.6,71.8z"/>
		<path d="M74.9,59.9c0,5.8-2.1,8.9-5.9,8.9c-3.3,0-5.5-3.1-5.6-8.7c0-5.7,2.4-8.8,5.9-8.8C72.9,51.4,74.9,54.5,74.9,59.9z
			 M65.8,60.2c0,4.4,1.3,6.9,3.4,6.9c2.3,0,3.5-2.7,3.5-7c0-4.2-1.1-6.9-3.4-6.9C67.2,53.1,65.8,55.6,65.8,60.2z"/>
	</g>
	<line class="st1" x1="278.9" y1="107" x2="324.9" y2="107"/>
	<g id="page1_1_" transform="matrix(1.13 0 0 1.13 -63.986043 -61.019991)">
		<g>
			<path id="g0-9_2_" class="st8" d="M361.1,98.7v3.2c-0.3,2-4.6,2.1-4.6,2.1h-0.7v1.4c2.2-0.1,4.8-0.1,7.1-0.1s4.8,0,7,0.1V104
				h-1.2c-4,0-4.1-0.6-4.1-2.5v-4.3c10.9-1.2,11-12.2,11-15.2c0-2.4,0.5-5.8,3.2-6.4c0.5-0.1,0.6-0.1,0.6-0.4c0-0.4-0.3-0.4-1.2-0.4
				H377c-3.5,0-4.6,2.7-4.6,8.2c0,5.6-1.5,12-7.7,13.3V72.1h0c0-2.1,0.1-2.7,4.5-2.7h0.8v-1.4c-2.2,0.1-4.8,0.1-7,0.1
				s-4.9,0-7.1-0.1v1.4h0.8c4,0.4,4.1,2.9,4.1,2.9L361.1,98.7"/>
		</g>
	</g>
	<path class="st1" d="M812.8,106.9"/>
	<path class="st2" d="M330.8,147.9"/>
	<line class="st3" x1="410.5" y1="106" x2="456.5" y2="106"/>
	<line class="st4" x1="456.5" y1="106" x2="502.5" y2="106"/>
	<line class="st5" x1="502.5" y1="106" x2="548.5" y2="106"/>
	<line class="st6" x1="547.5" y1="106" x2="593.5" y2="106"/>
	<line class="st3" x1="593.5" y1="106" x2="639.5" y2="106"/>
	<path class="st4" d="M685.5,106"/>
	<path class="st4" d="M639.5,106"/>
	<path class="st6" d="M776.5,106"/>
	<path class="st6" d="M730.5,106"/>
	<line class="st1" x1="364.5" y1="106" x2="410.5" y2="106"/>
	<g class="st7">
		<path d="M419.1,128c0,8-3,12.4-8.1,12.4c-4.6,0-7.7-4.3-7.7-12c0-7.8,3.4-12.2,8.1-12.2C416.3,116.2,419.1,120.6,419.1,128z
			 M406.4,128.4c0,6.1,1.9,9.5,4.8,9.5c3.2,0,4.8-3.8,4.8-9.8c0-5.8-1.5-9.5-4.8-9.5C408.4,118.6,406.4,122,406.4,128.4z"/>
	</g>
	<path class="st1" d="M822.5,106"/>
	<path class="st1" d="M776.5,106"/>
	<polyline class="st1" points="410.5,109 410.5,35 456.5,35 456.5,177 502.5,177 502.5,103 	"/>
	<g class="st7">
		<path d="M359,68.1v-1.4l1.8-1.7c4.3-4.1,6.3-6.3,6.3-8.8c0-1.7-0.8-3.3-3.3-3.3c-1.5,0-2.8,0.8-3.6,1.4l-0.7-1.6
			c1.2-1,2.8-1.7,4.8-1.7c3.6,0,5.2,2.5,5.2,4.9c0,3.1-2.3,5.6-5.8,9.1l-1.3,1.3v0.1h7.6v1.9C369.8,68.1,359,68.1,359,68.1z"/>
		<path d="M371.6,71.3c0.6-1.5,1.3-4.3,1.6-6.2l2.5-0.3c-0.6,2.2-1.7,5.1-2.5,6.3L371.6,71.3z"/>
		<path d="M388.9,59.5c0,5.7-2.1,8.9-5.9,8.9c-3.3,0-5.5-3.1-5.6-8.7c0-5.7,2.4-8.8,5.9-8.8C386.9,50.9,388.9,54.1,388.9,59.5z
			 M379.7,59.7c0,4.4,1.3,6.9,3.4,6.9c2.3,0,3.5-2.7,3.5-7c0-4.2-1.1-6.9-3.4-6.9C381.2,52.7,379.7,55.1,379.7,59.7z"/>
	</g>
	<line class="st1" x1="502.5" y1="106" x2="639.5" y2="106"/>
	<path class="st1" d="M1351.9,107"/>
	<path class="st2" d="M647.2,148"/>
	<line class="st3" x1="726.9" y1="106" x2="772.9" y2="106"/>
	<line class="st4" x1="772.9" y1="106" x2="818.9" y2="106"/>
	<line class="st5" x1="818.9" y1="106" x2="864.9" y2="106"/>
	<line class="st6" x1="863.9" y1="106" x2="909.9" y2="106"/>
	<line class="st3" x1="909.9" y1="106" x2="955.9" y2="106"/>
	<path class="st4" d="M1001.9,106"/>
	<path class="st4" d="M955.9,106"/>
	<path class="st5" d="M1270.5,106"/>
	<path class="st5" d="M1001.9,106"/>
	<line class="st1" x1="680.9" y1="106" x2="726.9" y2="106"/>
	<g class="st7">
		<path d="M735.5,128.2c0,8-2.9,12.4-8.1,12.4c-4.6,0-7.7-4.3-7.7-12c0-7.8,3.4-12.2,8.1-12.2C732.7,116.3,735.5,120.7,735.5,128.2z
			 M722.8,128.5c0,6.1,1.9,9.5,4.8,9.5c3.2,0,4.8-3.8,4.8-9.8c0-5.8-1.5-9.5-4.8-9.5C724.8,118.8,722.8,122.2,722.8,128.5z"/>
	</g>
	<path class="st1" d="M1361.5,106"/>
	<path class="st1" d="M1315.5,106"/>
	<polyline class="st1" points="726.9,109 726.9,35 749.9,35 749.9,177 772.9,177 772.9,103 	"/>
	<g class="st7">
		<path d="M675.9,65.7c0.7,0.4,2.2,1.1,3.7,1.1c2.9,0,3.8-1.9,3.8-3.3c0-2.4-2.2-3.4-4.4-3.4h-1.3v-1.7h1.3c1.7,0,3.8-0.9,3.8-2.9
			c0-1.3-0.9-2.5-3-2.5c-1.3,0-2.7,0.6-3.4,1.1l-0.6-1.7c0.9-0.7,2.6-1.3,4.4-1.3c3.3,0,4.8,2,4.8,4c0,1.7-1,3.2-3.1,4v0
			c2.1,0.4,3.8,2,3.8,4.3c0,2.7-2.1,5.1-6.2,5.1c-1.9,0-3.6-0.6-4.4-1.1L675.9,65.7z"/>
		<path d="M687.9,71.5c0.6-1.5,1.3-4.3,1.6-6.2L692,65c-0.6,2.2-1.7,5.1-2.5,6.3L687.9,71.5z"/>
		<path d="M705.3,59.6c0,5.8-2.1,8.9-5.9,8.9c-3.3,0-5.5-3.1-5.6-8.7c0-5.7,2.4-8.8,5.9-8.8C703.3,51.1,705.3,54.3,705.3,59.6z
			 M696.1,59.9c0,4.4,1.3,6.9,3.4,6.9c2.3,0,3.5-2.7,3.5-7c0-4.2-1.1-6.9-3.4-6.9C697.6,52.9,696.1,55.3,696.1,59.9z"/>
	</g>
	<line class="st1" x1="772.9" y1="106" x2="955.9" y2="106"/>
</g>
<g id="page1_3_" transform="matrix(1.13 0 0 1.13 -63.986043 -61.019991)">
	<g>
		<path id="g0-9_8_" class="st8" d="M360.2,101.6"/>
		<path id="g0-9_4_" class="st8" d="M360.7,96.3c-6.2-1.3-7.7-7.8-7.7-13.3c0-5.4-1.2-8.2-4.6-8.2H347c-0.9,0-1.2,0-1.2,0.4
			c0,0.3,0.1,0.3,0.6,0.4c2.7,0.5,3.2,3.9,3.2,6.4c0,3,0.1,14,11,15.2"/>
	</g>
</g>
<g id="page1_5_" transform="matrix(1.13 0 0 1.13 -63.986043 -61.019991)">
	<g>
		<path id="g0-9_7_" class="st8" d="M641,99.2v3.2c-0.3,2-4.6,2.1-4.6,2.1h-0.7v1.4c2.2-0.1,4.8-0.1,7.1-0.1s4.8,0,7,0.1v-1.4h-1.2
			c-4,0-4.1-0.6-4.1-2.5v-4.3c10.9-1.2,11-12.2,11-15.2c0-2.4,0.5-5.8,3.2-6.4c0.5-0.1,0.6-0.1,0.6-0.4c0-0.4-0.3-0.4-1.2-0.4h-1.4
			c-3.5,0-4.6,2.7-4.6,8.2c0,5.6-1.5,12-7.7,13.3V72.7h0c0-2.1,0.1-2.7,4.5-2.7h0.8v-1.4c-2.2,0.1-4.8,0.1-7,0.1s-4.9,0-7.1-0.1V70
			h0.8c4,0.4,4.1,2.9,4.1,2.9L641,99.2"/>
	</g>
</g>
<g id="page1_4_" transform="matrix(1.13 0 0 1.13 -63.986043 -61.019991)">
	<g>
		<path id="g0-9_6_" class="st8" d="M640.2,102.2"/>
		<path id="g0-9_5_" class="st8" d="M640.7,96.8c-6.2-1.3-7.7-7.8-7.7-13.3c0-5.4-1.2-8.2-4.6-8.2H627c-0.9,0-1.2,0-1.2,0.4
			c0,0.3,0.1,0.3,0.6,0.4c2.7,0.5,3.2,3.9,3.2,6.4c0,3,0.1,14,11,15.2"/>
	</g>
</g>
<g id="page1_7_" transform="matrix(1.13 0 0 1.13 -63.986043 -61.019991)">
	<g>
		<path id="g0-9_10_" class="st8" d="M82.7,99.9v3.2c-0.3,2-4.6,2.1-4.6,2.1h-0.7v1.4c2.2-0.1,4.8-0.1,7.1-0.1s4.8,0,7,0.1v-1.4
			h-1.2c-4,0-4.1-0.6-4.1-2.5v-4.3c10.9-1.2,11-12.2,11-15.2c0-2.4,0.5-5.8,3.2-6.4c0.5-0.1,0.6-0.1,0.6-0.4c0-0.4-0.3-0.4-1.2-0.4
			h-1.4c-3.5,0-4.6,2.7-4.6,8.2c0,5.6-1.5,12-7.7,13.3V73.4h0c0-2.1,0.1-2.7,4.5-2.7h0.8v-1.4c-2.2,0.1-4.8,0.1-7,0.1
			s-4.9,0-7.1-0.1v1.4h0.8c4,0.4,4.1,2.9,4.1,2.9L82.7,99.9"/>
	</g>
</g>
<g id="page1_6_" transform="matrix(1.13 0 0 1.13 -63.986043 -61.019991)">
	<g>
		<path id="g0-9_9_" class="st8" d="M81.8,102.9"/>
		<path id="g0-9_3_" class="st8" d="M82.3,97.6c-6.2-1.3-7.7-7.8-7.7-13.3c0-5.4-1.2-8.2-4.6-8.2h-1.4c-0.9,0-1.2,0-1.2,0.4
			c0,0.3,0.1,0.3,0.6,0.4c2.7,0.5,3.2,3.9,3.2,6.4c0,3,0.1,14,11,15.2"/>
	</g>
</g>
</svg>
